ply
format ascii 1.0
comment VCGLIB generated
element vertex 72
property float x
property float y
property float z
element face 140
property list uchar int vertex_indices
end_header
29 -29 0 
-29 -29 0 
29 29 0 
-29 29 0 
-90 90 0 
90 90 0 
29 80 0 
31 80 0 
-79.99999 -29 0 
-79.99999 -31 0 
-90 -90 0 
-31 -31 0 
-31 80 0 
-29 80 0 
-29 31 0 
29 31 0 
-31 -79.99999 0 
-29 -79.99999 0 
90 -90 0 
-31 31 0 
-79.99999 31 0 
-79.99999 29 0 
-31 29 0 
-31 -29 0 
-29 -31 0 
29 -31 0 
29 -79.99999 0 
31 -79.99999 0 
31 -31 0 
80 -31 0 
80 -29 0 
31 31 0 
80 31 0 
80 29 0 
31 29 0 
31 -29 0 
-31 -29 1 
-31 29 1 
-31 80 1 
-31 31 1 
-29 -29 1 
-29 29 1 
-29 80 1 
-29 31 1 
31 -29 1 
31 29 1 
31 80 1 
31 31 1 
29 -29 1 
29 29 1 
29 80 1 
29 31 1 
-31 -79.99999 1 
-31 -31 1 
-29 -79.99999 1 
-29 -31 1 
31 -79.99999 1 
31 -31 1 
29 -79.99999 1 
29 -31 1 
90 -90 -10 
90 90 -10 
-90 -90 -10 
-90 90 -10 
80 31 1 
80 29 1 
80 -29 1 
80 -31 1 
-79.99999 29 1 
-79.99999 31 1 
-79.99999 -31 1 
-79.99999 -29 1 
3 0 1 2 
3 2 1 3 
3 4 5 6 
3 6 5 7 
3 8 9 10 
3 10 9 11 
3 12 4 13 
3 13 4 6 
3 13 6 14 
3 14 6 15 
3 11 16 10 
3 10 16 17 
3 10 17 18 
3 12 19 4 
3 4 19 20 
3 4 20 21 
3 22 23 21 
3 21 23 8 
3 21 8 4 
3 4 8 10 
3 24 25 17 
3 17 25 26 
3 17 26 18 
3 18 26 27 
3 18 27 28 
3 28 29 18 
3 18 29 30 
3 18 30 5 
3 31 7 32 
3 32 7 5 
3 32 5 33 
3 33 5 30 
3 33 30 34 
3 34 30 35 
3 36 23 37 
3 37 23 22 
3 12 38 19 
3 19 38 39 
3 1 40 3 
3 3 40 41 
3 42 13 43 
3 43 13 14 
3 35 44 34 
3 34 44 45 
3 46 7 47 
3 47 7 31 
3 48 0 49 
3 49 0 2 
3 6 50 15 
3 15 50 51 
3 52 16 53 
3 53 16 11 
3 17 54 24 
3 24 54 55 
3 27 56 28 
3 28 56 57 
3 58 26 59 
3 59 26 25 
3 18 5 60 
3 60 5 61 
3 10 18 62 
3 62 18 60 
3 4 10 63 
3 63 10 62 
3 5 4 61 
3 61 4 63 
3 63 62 61 
3 61 62 60 
3 42 38 13 
3 13 38 12 
3 52 54 16 
3 16 54 17 
3 64 65 47 
3 47 65 45 
3 44 66 67 
3 50 46 51 
3 51 46 47 
3 52 53 54 
3 54 53 55 
3 56 58 57 
3 57 58 59 
3 41 40 37 
3 37 40 36 
3 68 69 37 
3 37 69 39 
3 37 39 41 
3 70 71 53 
3 53 71 36 
3 53 36 55 
3 55 36 40 
3 55 40 59 
3 59 40 48 
3 67 57 44 
3 44 57 59 
3 44 59 45 
3 45 59 48 
3 45 48 47 
3 47 48 49 
3 47 49 51 
3 51 49 41 
3 51 41 43 
3 43 41 39 
3 43 39 42 
3 42 39 38 
3 58 56 26 
3 26 56 27 
3 46 50 7 
3 7 50 6 
3 1 0 40 
3 40 0 48 
3 55 59 24 
3 24 59 25 
3 35 30 44 
3 44 30 66 
3 57 67 28 
3 28 67 29 
3 67 66 29 
3 29 66 30 
3 11 9 53 
3 53 9 70 
3 36 71 23 
3 23 71 8 
3 71 70 8 
3 8 70 9 
3 14 15 43 
3 43 15 51 
3 41 49 3 
3 3 49 2 
3 31 32 47 
3 47 32 64 
3 45 65 34 
3 34 65 33 
3 65 64 33 
3 33 64 32 
3 22 21 37 
3 37 21 68 
3 39 69 19 
3 19 69 20 
3 69 68 20 
3 20 68 21 
