ply
format ascii 1.0
comment Created by Blender 2.83.1 - www.blender.org, source file: ''
element vertex 24
property float x
property float y
property float z
property float nx
property float ny
property float nz
property float s
property float t
property uchar red
property uchar green
property uchar blue
property uchar alpha
element face 6
property list uchar uint vertex_indices
end_header
0.015000 0.015000 0.001500 0.000000 -0.000000 1.000000 0.625000 0.500000 24 20 254 255
-0.015000 0.015000 0.001500 0.000000 -0.000000 1.000000 0.875000 0.500000 60 19 247 253
-0.015000 -0.015000 0.001500 0.000000 -0.000000 1.000000 0.875000 0.750000 42 22 252 255
0.015000 -0.015000 0.001500 0.000000 -0.000000 1.000000 0.625000 0.750000 25 20 254 255
0.015000 -0.015000 -0.001500 0.000000 -1.000000 0.000000 0.375000 0.750000 144 26 210 255
0.015000 -0.015000 0.001500 0.000000 -1.000000 0.000000 0.625000 0.750000 25 20 254 255
-0.015000 -0.015000 0.001500 0.000000 -1.000000 0.000000 0.625000 1.000000 42 22 252 255
-0.015000 -0.015000 -0.001500 0.000000 -1.000000 0.000000 0.375000 1.000000 18 20 255 255
-0.015000 -0.015000 -0.001500 -1.000000 -0.000000 0.000000 0.375000 0.000000 18 20 255 255
-0.015000 -0.015000 0.001500 -1.000000 -0.000000 0.000000 0.625000 0.000000 42 22 252 255
-0.015000 0.015000 0.001500 -1.000000 -0.000000 0.000000 0.625000 0.250000 60 19 247 253
-0.015000 0.015000 -0.001500 -1.000000 -0.000000 0.000000 0.375000 0.250000 138 17 215 255
-0.015000 0.015000 -0.001500 0.000000 0.000000 -1.000000 0.125000 0.500000 138 17 215 255
0.015000 0.015000 -0.001500 0.000000 0.000000 -1.000000 0.375000 0.500000 38 20 253 255
0.015000 -0.015000 -0.001500 0.000000 0.000000 -1.000000 0.375000 0.750000 144 26 210 255
-0.015000 -0.015000 -0.001500 0.000000 0.000000 -1.000000 0.125000 0.750000 18 20 255 255
0.015000 0.015000 -0.001500 1.000000 -0.000000 0.000000 0.375000 0.500000 38 20 253 255
0.015000 0.015000 0.001500 1.000000 -0.000000 0.000000 0.625000 0.500000 24 20 254 255
0.015000 -0.015000 0.001500 1.000000 -0.000000 0.000000 0.625000 0.750000 25 20 254 255
0.015000 -0.015000 -0.001500 1.000000 -0.000000 0.000000 0.375000 0.750000 144 26 210 255
-0.015000 0.015000 -0.001500 0.000000 1.000000 0.000000 0.375000 0.250000 138 17 215 255
-0.015000 0.015000 0.001500 0.000000 1.000000 0.000000 0.625000 0.250000 60 19 247 253
0.015000 0.015000 0.001500 0.000000 1.000000 0.000000 0.625000 0.500000 24 20 254 255
0.015000 0.015000 -0.001500 0.000000 1.000000 0.000000 0.375000 0.500000 38 20 253 255
4 0 1 2 3
4 4 5 6 7
4 8 9 10 11
4 12 13 14 15
4 16 17 18 19
4 20 21 22 23
