ply
format ascii 1.0
comment Created by Blender 2.83.1 - www.blender.org, source file: 'Dobot.blend'
element vertex 24
property float x
property float y
property float z
property float nx
property float ny
property float nz
property uchar red
property uchar green
property uchar blue
property uchar alpha
element face 12
property list uchar uint vertex_indices
end_header
-0.079000 -0.079000 0.000000 -0.000000 -1.000000 -0.000000 173 255 228 255
0.079000 -0.079000 0.000000 -0.000000 -1.000000 -0.000000 148 255 220 255
-0.079000 -0.079000 0.052000 -0.000000 -1.000000 -0.000000 147 255 220 255
0.079000 -0.079000 0.052000 -0.000000 -1.000000 -0.000000 152 255 221 255
0.079000 -0.079000 0.000000 1.000000 0.000000 0.000000 148 255 220 255
0.079000 0.079000 0.000000 1.000000 0.000000 0.000000 149 255 221 255
0.079000 -0.079000 0.052000 1.000000 0.000000 0.000000 152 255 221 255
0.079000 0.079000 0.052000 1.000000 0.000000 0.000000 148 255 220 255
0.079000 0.079000 0.000000 -0.000000 1.000000 0.000000 149 255 221 255
-0.079000 0.079000 0.000000 -0.000000 1.000000 0.000000 147 255 220 255
0.079000 0.079000 0.052000 -0.000000 1.000000 0.000000 148 255 220 255
-0.079000 0.079000 0.052000 -0.000000 1.000000 0.000000 156 255 222 255
-0.079000 0.079000 0.000000 -1.000000 0.000000 -0.000000 147 255 220 255
-0.079000 -0.079000 0.000000 -1.000000 0.000000 -0.000000 173 255 228 255
-0.079000 0.079000 0.052000 -1.000000 0.000000 -0.000000 156 255 222 255
-0.079000 -0.079000 0.052000 -1.000000 0.000000 0.000000 147 255 220 255
-0.079000 0.079000 0.000000 0.000000 0.000000 -1.000000 147 255 220 255
0.079000 0.079000 0.000000 0.000000 0.000000 -1.000000 149 255 221 255
-0.079000 -0.079000 0.000000 0.000000 0.000000 -1.000000 173 255 228 255
0.079000 -0.079000 0.000000 -0.000000 0.000000 -1.000000 148 255 220 255
0.079000 -0.079000 0.052000 -0.000000 0.000000 1.000000 255 255 255 255
-0.079000 0.079000 0.052000 -0.000000 0.000000 1.000000 255 255 255 255
-0.079000 -0.079000 0.052000 -0.000000 0.000000 1.000000 255 255 255 255
0.079000 0.079000 0.052000 -0.000000 0.000000 1.000000 255 255 255 255
3 0 1 2
3 2 1 3
3 4 5 6
3 6 5 7
3 8 9 10
3 10 9 11
3 12 13 14
3 14 13 15
3 16 17 18
3 18 17 19
3 20 21 22
3 20 23 21
