ply
format ascii 1.0
comment Created by Blender 2.83.1 - www.blender.org, source file: 'Dobot.blend'
element vertex 240
property float x
property float y
property float z
property float nx
property float ny
property float nz
property uchar red
property uchar green
property uchar blue
property uchar alpha
element face 156
property list uchar uint vertex_indices
end_header
-0.135000 0.025000 0.025000 -0.082580 0.996584 0.000000 64 205 255 255
-0.135000 0.025000 -0.025000 -0.082580 0.996584 0.000000 79 207 255 255
-0.139115 0.024659 -0.025000 -0.082580 0.996584 0.000000 86 208 255 255
-0.139115 0.024659 0.025000 -0.082580 0.996584 0.000000 64 205 255 255
-0.139115 0.024659 0.025000 -0.245486 0.969400 0.000000 64 205 255 255
-0.139115 0.024659 -0.025000 -0.245486 0.969400 0.000000 86 208 255 255
-0.143117 0.023645 -0.025000 -0.245486 0.969400 0.000000 85 208 255 255
-0.143117 0.023645 0.025000 -0.245486 0.969400 0.000000 64 205 255 255
-0.143117 0.023645 0.025000 -0.401695 0.915773 0.000000 64 205 255 255
-0.143117 0.023645 -0.025000 -0.401695 0.915773 0.000000 85 208 255 255
-0.146899 0.021987 -0.025000 -0.401695 0.915773 0.000000 68 205 255 255
-0.146899 0.021987 0.025000 -0.401695 0.915773 0.000000 64 205 255 255
-0.146899 0.021987 0.025000 -0.546948 0.837167 0.000000 64 205 255 255
-0.146899 0.021987 -0.025000 -0.546948 0.837167 0.000000 68 205 255 255
-0.150355 0.019729 -0.025000 -0.546948 0.837167 0.000000 65 205 255 255
-0.150355 0.019729 0.025000 -0.546948 0.837167 0.000000 64 205 255 255
-0.150355 0.019729 0.025000 -0.677282 0.735724 0.000000 64 205 255 255
-0.150355 0.019729 -0.025000 -0.677282 0.735724 0.000000 65 205 255 255
-0.153393 0.016932 -0.025000 -0.677282 0.735724 0.000000 64 205 255 255
-0.153393 0.016932 0.025000 -0.677282 0.735724 0.000000 64 205 255 255
-0.153393 0.016932 0.025000 -0.789141 0.614212 0.000000 64 205 255 255
-0.153393 0.016932 -0.025000 -0.789141 0.614212 0.000000 64 205 255 255
-0.155929 0.013674 -0.025000 -0.789141 0.614212 0.000000 64 205 255 255
-0.155929 0.013674 0.025000 -0.789141 0.614212 0.000000 64 205 255 255
-0.155929 0.013674 0.025000 -0.879473 0.475949 0.000000 64 205 255 255
-0.155929 0.013674 -0.025000 -0.879473 0.475949 0.000000 64 205 255 255
-0.157894 0.010042 -0.025000 -0.879473 0.475949 0.000000 64 205 255 255
-0.157894 0.010042 0.025000 -0.879473 0.475949 0.000000 64 205 255 255
-0.157894 0.010042 0.025000 -0.945817 0.324699 0.000000 64 205 255 255
-0.157894 0.010042 -0.025000 -0.945817 0.324699 0.000000 64 205 255 255
-0.159235 0.006137 -0.025000 -0.945817 0.324699 0.000000 64 205 255 255
-0.159235 0.006137 0.025000 -0.945817 0.324699 0.000000 64 205 255 255
-0.159235 0.006137 0.025000 -0.986362 0.164593 0.000000 64 205 255 255
-0.159235 0.006137 -0.025000 -0.986362 0.164593 0.000000 64 205 255 255
-0.159915 0.002064 -0.025000 -0.986362 0.164593 0.000000 64 205 255 255
-0.159915 0.002064 0.025000 -0.986362 0.164593 0.000000 64 205 255 255
-0.159915 0.002064 0.025000 -1.000000 0.000000 0.000000 64 205 255 255
-0.159915 0.002064 -0.025000 -1.000000 0.000000 0.000000 64 205 255 255
-0.159915 -0.002064 -0.025000 -1.000000 0.000000 0.000000 64 205 255 255
-0.159915 -0.002064 0.025000 -1.000000 0.000000 0.000000 64 205 255 255
-0.159915 -0.002064 0.025000 -0.986362 -0.164593 0.000000 64 205 255 255
-0.159915 -0.002064 -0.025000 -0.986362 -0.164593 0.000000 64 205 255 255
-0.159235 -0.006137 -0.025000 -0.986362 -0.164593 0.000000 64 205 255 255
-0.159235 -0.006137 0.025000 -0.986362 -0.164593 -0.000000 64 205 255 255
-0.159235 -0.006137 0.025000 -0.945817 -0.324699 0.000000 64 205 255 255
-0.159235 -0.006137 -0.025000 -0.945817 -0.324699 0.000000 64 205 255 255
-0.157894 -0.010042 -0.025000 -0.945817 -0.324699 0.000000 64 205 255 255
-0.157894 -0.010042 0.025000 -0.945817 -0.324699 -0.000000 64 205 255 255
-0.157894 -0.010042 0.025000 -0.879473 -0.475949 0.000000 64 205 255 255
-0.157894 -0.010042 -0.025000 -0.879473 -0.475949 0.000000 64 205 255 255
-0.155929 -0.013674 -0.025000 -0.879473 -0.475949 0.000000 64 205 255 255
-0.155929 -0.013674 0.025000 -0.879473 -0.475949 -0.000000 64 205 255 255
-0.155929 -0.013674 0.025000 -0.789141 -0.614212 0.000000 64 205 255 255
-0.155929 -0.013674 -0.025000 -0.789141 -0.614212 0.000000 64 205 255 255
-0.153393 -0.016932 -0.025000 -0.789141 -0.614212 0.000000 64 205 255 255
-0.153393 -0.016932 0.025000 -0.789141 -0.614212 -0.000000 64 205 255 255
-0.153393 -0.016932 0.025000 -0.677282 -0.735723 0.000000 64 205 255 255
-0.153393 -0.016932 -0.025000 -0.677282 -0.735723 0.000000 64 205 255 255
-0.150355 -0.019729 -0.025000 -0.677282 -0.735723 0.000000 65 205 255 255
-0.150355 -0.019729 0.025000 -0.677282 -0.735723 -0.000000 64 205 255 255
-0.150355 -0.019729 0.025000 -0.546947 -0.837168 0.000000 64 205 255 255
-0.150355 -0.019729 -0.025000 -0.546947 -0.837168 0.000000 65 205 255 255
-0.146899 -0.021987 -0.025000 -0.546947 -0.837168 0.000000 64 205 255 255
-0.146899 -0.021987 0.025000 -0.546947 -0.837168 -0.000000 64 205 255 255
-0.146899 -0.021987 0.025000 -0.401696 -0.915773 0.000000 64 205 255 255
-0.146899 -0.021987 -0.025000 -0.401696 -0.915773 0.000000 64 205 255 255
-0.143117 -0.023645 -0.025000 -0.401696 -0.915773 0.000000 64 205 255 255
-0.143117 -0.023645 0.025000 -0.401696 -0.915773 -0.000000 64 205 255 255
-0.143117 -0.023645 0.025000 -0.245485 -0.969400 0.000000 64 205 255 255
-0.143117 -0.023645 -0.025000 -0.245485 -0.969400 0.000000 64 205 255 255
-0.139115 -0.024659 -0.025000 -0.245485 -0.969400 0.000000 64 205 255 255
-0.139115 -0.024659 0.025000 -0.245485 -0.969400 -0.000000 64 205 255 255
-0.139115 -0.024659 0.025000 -0.082580 -0.996584 0.000000 64 205 255 255
-0.139115 -0.024659 -0.025000 -0.082580 -0.996584 0.000000 64 205 255 255
-0.135000 -0.025000 -0.025000 -0.082580 -0.996584 0.000000 64 205 255 255
-0.135000 -0.025000 0.025000 -0.082580 -0.996584 -0.000000 71 206 255 255
0.000000 -0.025000 0.025000 0.000000 -1.000000 0.000000 65 205 255 255
-0.135000 -0.025000 0.025000 0.000000 -1.000000 0.000000 71 206 255 255
0.000000 -0.025000 -0.025000 0.000000 -1.000000 0.000000 64 205 255 255
-0.135000 -0.025000 -0.025000 0.000000 -1.000000 0.000000 64 205 255 255
0.000000 -0.025000 0.025000 0.082580 -0.996584 0.000000 65 205 255 255
0.000000 -0.025000 -0.025000 0.082580 -0.996584 0.000000 64 205 255 255
0.004115 -0.024659 -0.025000 0.082580 -0.996584 0.000000 64 205 255 255
0.004115 -0.024659 0.025000 0.082580 -0.996584 0.000000 66 205 255 255
0.004115 -0.024659 0.025000 0.245485 -0.969400 0.000000 66 205 255 255
0.004115 -0.024659 -0.025000 0.245485 -0.969400 0.000000 64 205 255 255
0.008117 -0.023645 -0.025000 0.245485 -0.969400 0.000000 65 205 255 255
0.008117 -0.023645 0.025000 0.245485 -0.969400 0.000000 65 205 255 255
0.008117 -0.023645 0.025000 0.401696 -0.915773 0.000000 65 205 255 255
0.008117 -0.023645 -0.025000 0.401696 -0.915773 0.000000 65 205 255 255
0.011899 -0.021987 -0.025000 0.401696 -0.915773 0.000000 64 205 255 255
0.011899 -0.021987 0.025000 0.401696 -0.915773 0.000000 64 205 255 255
0.011899 -0.021987 0.025000 0.546947 -0.837167 0.000000 64 205 255 255
0.011899 -0.021987 -0.025000 0.546947 -0.837167 0.000000 64 205 255 255
0.015355 -0.019729 -0.025000 0.546947 -0.837167 0.000000 64 205 255 255
0.015355 -0.019729 0.025000 0.546947 -0.837167 0.000000 64 205 255 255
0.015355 -0.019729 0.025000 0.677282 -0.735723 0.000000 64 205 255 255
0.015355 -0.019729 -0.025000 0.677282 -0.735723 0.000000 64 205 255 255
0.018393 -0.016932 -0.025000 0.677282 -0.735723 0.000000 64 205 255 255
0.018393 -0.016932 0.025000 0.677282 -0.735723 0.000000 64 205 255 255
0.018393 -0.016932 0.025000 0.789141 -0.614212 0.000000 64 205 255 255
0.018393 -0.016932 -0.025000 0.789141 -0.614212 0.000000 64 205 255 255
0.020929 -0.013674 -0.025000 0.789141 -0.614212 0.000000 64 205 255 255
0.020929 -0.013674 0.025000 0.789141 -0.614212 0.000000 64 205 255 255
0.020929 -0.013674 0.025000 0.879474 -0.475946 0.000000 64 205 255 255
0.020929 -0.013674 -0.025000 0.879474 -0.475946 0.000000 64 205 255 255
0.022894 -0.010042 -0.025000 0.879474 -0.475946 0.000000 64 205 255 255
0.022894 -0.010042 0.025000 0.879474 -0.475946 0.000000 64 205 255 255
0.022894 -0.010042 0.025000 0.945817 -0.324699 0.000000 64 205 255 255
0.022894 -0.010042 -0.025000 0.945817 -0.324699 0.000000 64 205 255 255
0.024235 -0.006137 -0.025000 0.945817 -0.324699 0.000000 64 205 255 255
0.024235 -0.006137 0.025000 0.945817 -0.324699 0.000000 65 205 255 255
0.024235 -0.006137 0.025000 0.986361 -0.164596 0.000000 65 205 255 255
0.024235 -0.006137 -0.025000 0.986361 -0.164596 0.000000 64 205 255 255
0.024915 -0.002064 -0.025000 0.986361 -0.164596 0.000000 64 205 255 255
0.024915 -0.002064 0.025000 0.986361 -0.164596 0.000000 65 206 255 255
0.024915 -0.002064 0.025000 1.000000 0.000000 -0.000000 65 206 255 255
0.024915 -0.002064 -0.025000 1.000000 0.000000 -0.000000 64 205 255 255
0.024915 0.002064 -0.025000 1.000000 0.000000 -0.000000 64 205 255 255
0.024915 0.002064 0.025000 1.000000 0.000000 0.000000 64 205 255 255
0.024915 0.002064 0.025000 0.986361 0.164596 -0.000000 64 205 255 255
0.024915 0.002064 -0.025000 0.986361 0.164596 -0.000000 64 205 255 255
0.024235 0.006137 -0.025000 0.986361 0.164596 -0.000000 64 205 255 255
0.024235 0.006137 0.025000 0.986361 0.164596 0.000000 64 205 255 255
0.024235 0.006137 0.025000 0.945817 0.324699 -0.000000 64 205 255 255
0.024235 0.006137 -0.025000 0.945817 0.324699 -0.000000 64 205 255 255
0.022894 0.010042 -0.025000 0.945817 0.324699 -0.000000 64 205 255 255
0.022894 0.010042 0.025000 0.945817 0.324699 0.000000 64 205 255 255
0.022894 0.010042 0.025000 0.879474 0.475946 -0.000000 64 205 255 255
0.022894 0.010042 -0.025000 0.879474 0.475946 -0.000000 64 205 255 255
0.020929 0.013674 -0.025000 0.879474 0.475946 -0.000000 64 205 255 255
0.020929 0.013674 0.025000 0.879474 0.475946 0.000000 64 205 255 255
0.020929 0.013674 0.025000 0.789141 0.614212 -0.000000 64 205 255 255
0.020929 0.013674 -0.025000 0.789141 0.614212 -0.000000 64 205 255 255
0.018393 0.016932 -0.025000 0.789141 0.614212 -0.000000 64 205 255 255
0.018393 0.016932 0.025000 0.789141 0.614212 0.000000 64 205 255 255
0.018393 0.016932 0.025000 0.677282 0.735724 -0.000000 64 205 255 255
0.018393 0.016932 -0.025000 0.677282 0.735724 -0.000000 64 205 255 255
0.015355 0.019729 -0.025000 0.677282 0.735724 -0.000000 64 205 255 255
0.015355 0.019729 0.025000 0.677282 0.735724 0.000000 64 205 255 255
0.015355 0.019729 0.025000 0.546947 0.837167 -0.000000 64 205 255 255
0.015355 0.019729 -0.025000 0.546947 0.837167 -0.000000 64 205 255 255
0.011899 0.021987 -0.025000 0.546947 0.837167 -0.000000 64 205 255 255
0.011899 0.021987 0.025000 0.546947 0.837167 0.000000 64 205 255 255
0.011899 0.021987 0.025000 0.401695 0.915773 -0.000000 64 205 255 255
0.011899 0.021987 -0.025000 0.401695 0.915773 -0.000000 64 205 255 255
0.008117 0.023645 -0.025000 0.401695 0.915773 -0.000000 64 205 255 255
0.008117 0.023645 0.025000 0.401695 0.915773 0.000000 64 205 255 255
0.008117 0.023645 0.025000 0.245486 0.969400 -0.000000 64 205 255 255
0.008117 0.023645 -0.025000 0.245486 0.969400 -0.000000 64 205 255 255
0.004115 0.024659 -0.025000 0.245486 0.969400 -0.000000 64 205 255 255
0.004115 0.024659 0.025000 0.245486 0.969400 0.000000 64 205 255 255
0.004115 0.024659 0.025000 0.082580 0.996584 -0.000000 64 205 255 255
0.004115 0.024659 -0.025000 0.082580 0.996584 -0.000000 64 205 255 255
0.000000 0.025000 -0.025000 0.082580 0.996584 -0.000000 64 205 255 255
0.000000 0.025000 0.025000 0.082580 0.996584 0.000000 64 205 255 255
-0.135000 0.025000 0.025000 -0.000000 1.000000 0.000000 64 205 255 255
0.000000 0.025000 0.025000 -0.000000 1.000000 0.000000 64 205 255 255
-0.135000 0.025000 -0.025000 -0.000000 1.000000 0.000000 79 207 255 255
0.000000 0.025000 -0.025000 -0.000000 1.000000 0.000000 64 205 255 255
-0.135000 0.025000 0.025000 0.000000 -0.000000 1.000000 64 205 255 255
-0.139115 0.024659 0.025000 0.000000 -0.000000 1.000000 64 205 255 255
-0.135000 -0.025000 0.025000 0.000000 -0.000000 1.000000 71 206 255 255
-0.143117 0.023645 0.025000 -0.000000 0.000000 1.000000 64 205 255 255
-0.139115 -0.024659 0.025000 -0.000000 -0.000000 1.000000 64 205 255 255
0.004115 -0.024659 0.025000 0.000000 0.000000 1.000000 66 205 255 255
0.008117 -0.023645 0.025000 0.000000 0.000000 1.000000 65 205 255 255
0.000000 0.025000 0.025000 0.000000 0.000000 1.000000 64 205 255 255
0.022894 -0.010042 0.025000 -0.000000 -0.000000 1.000000 64 205 255 255
0.020929 -0.013674 0.025000 -0.000000 -0.000000 1.000000 64 205 255 255
0.018393 -0.016932 0.025000 -0.000000 -0.000000 1.000000 64 205 255 255
-0.150355 0.019729 0.025000 0.000000 0.000000 1.000000 64 205 255 255
-0.153393 0.016932 0.025000 0.000000 0.000000 1.000000 64 205 255 255
-0.153393 -0.016932 0.025000 0.000000 0.000000 1.000000 64 205 255 255
0.000000 -0.025000 0.025000 0.000000 -0.000000 1.000000 65 205 255 255
0.024235 -0.006137 0.025000 0.000000 0.000000 1.000000 65 205 255 255
0.024915 -0.002064 0.025000 0.000000 0.000000 1.000000 65 206 255 255
0.024915 0.002064 0.025000 0.000000 0.000000 1.000000 64 205 255 255
-0.150355 -0.019729 0.025000 0.000000 0.000000 1.000000 64 205 255 255
-0.146899 -0.021987 0.025000 0.000000 0.000000 1.000000 64 205 255 255
-0.143117 -0.023645 0.025000 0.000000 -0.000000 1.000000 64 205 255 255
0.011899 -0.021987 0.025000 0.000000 0.000000 1.000000 64 205 255 255
0.015355 -0.019729 0.025000 0.000000 0.000000 1.000000 64 205 255 255
0.024235 0.006137 0.025000 0.000000 0.000000 1.000000 64 205 255 255
0.022894 0.010042 0.025000 0.000000 0.000000 1.000000 64 205 255 255
0.004115 0.024659 0.025000 0.000000 0.000000 1.000000 64 205 255 255
0.015355 0.019729 0.025000 -0.000000 -0.000000 1.000000 64 205 255 255
0.011899 0.021987 0.025000 -0.000000 -0.000000 1.000000 64 205 255 255
0.018393 0.016932 0.025000 -0.000000 -0.000000 1.000000 64 205 255 255
0.020929 0.013674 0.025000 -0.000000 -0.000000 1.000000 64 205 255 255
0.008117 0.023645 0.025000 0.000000 0.000000 1.000000 64 205 255 255
-0.146899 0.021987 0.025000 -0.000000 0.000000 1.000000 64 205 255 255
-0.155929 0.013674 0.025000 0.000000 -0.000000 1.000000 64 205 255 255
-0.157894 0.010042 0.025000 -0.000000 0.000000 1.000000 64 205 255 255
-0.159235 0.006137 0.025000 -0.000000 0.000000 1.000000 64 205 255 255
-0.159915 0.002064 0.025000 0.000000 -0.000000 1.000000 64 205 255 255
-0.159915 -0.002064 0.025000 -0.000000 0.000000 1.000000 64 205 255 255
-0.155929 -0.013674 0.025000 -0.000000 -0.000000 1.000000 64 205 255 255
-0.159235 -0.006137 0.025000 -0.000000 -0.000000 1.000000 64 205 255 255
-0.157894 -0.010042 0.025000 -0.000000 -0.000000 1.000000 64 205 255 255
-0.135000 0.025000 -0.025000 -0.000000 0.000000 -1.000000 79 207 255 255
0.000000 0.025000 -0.025000 -0.000000 0.000000 -1.000000 64 205 255 255
0.000000 -0.025000 -0.025000 -0.000000 0.000000 -1.000000 64 205 255 255
-0.135000 -0.025000 -0.025000 0.000000 0.000000 -1.000000 64 205 255 255
-0.139115 -0.024659 -0.025000 0.000000 0.000000 -1.000000 64 205 255 255
-0.143117 -0.023645 -0.025000 0.000000 0.000000 -1.000000 64 205 255 255
-0.146899 -0.021987 -0.025000 0.000000 -0.000000 -1.000000 64 205 255 255
-0.150355 -0.019729 -0.025000 0.000000 0.000000 -1.000000 65 205 255 255
-0.153393 -0.016932 -0.025000 0.000000 0.000000 -1.000000 64 205 255 255
-0.155929 -0.013674 -0.025000 -0.000000 0.000000 -1.000000 64 205 255 255
-0.143117 0.023645 -0.025000 -0.000000 0.000000 -1.000000 85 208 255 255
-0.139115 0.024659 -0.025000 0.000000 0.000000 -1.000000 86 208 255 255
-0.159915 -0.002064 -0.025000 0.000000 -0.000000 -1.000000 64 205 255 255
-0.159915 0.002064 -0.025000 0.000000 -0.000000 -1.000000 64 205 255 255
-0.159235 0.006137 -0.025000 0.000000 -0.000000 -1.000000 64 205 255 255
0.004115 0.024659 -0.025000 0.000000 0.000000 -1.000000 64 205 255 255
0.008117 0.023645 -0.025000 -0.000000 0.000000 -1.000000 64 205 255 255
0.011899 0.021987 -0.025000 -0.000000 0.000000 -1.000000 64 205 255 255
0.020929 0.013674 -0.025000 0.000000 0.000000 -1.000000 64 205 255 255
0.022894 0.010042 -0.025000 0.000000 0.000000 -1.000000 64 205 255 255
0.024235 0.006137 -0.025000 -0.000000 0.000000 -1.000000 64 205 255 255
0.024915 0.002064 -0.025000 -0.000000 0.000000 -1.000000 64 205 255 255
-0.157894 -0.010042 -0.025000 0.000000 -0.000000 -1.000000 64 205 255 255
-0.159235 -0.006137 -0.025000 0.000000 0.000000 -1.000000 64 205 255 255
-0.157894 0.010042 -0.025000 -0.000000 0.000000 -1.000000 64 205 255 255
-0.155929 0.013674 -0.025000 0.000000 0.000000 -1.000000 64 205 255 255
-0.153393 0.016932 -0.025000 0.000000 0.000000 -1.000000 64 205 255 255
0.015355 0.019729 -0.025000 0.000000 0.000000 -1.000000 64 205 255 255
0.018393 0.016932 -0.025000 -0.000000 0.000000 -1.000000 64 205 255 255
0.024915 -0.002064 -0.025000 0.000000 0.000000 -1.000000 64 205 255 255
0.024235 -0.006137 -0.025000 -0.000000 0.000000 -1.000000 64 205 255 255
0.022894 -0.010042 -0.025000 -0.000000 0.000000 -1.000000 64 205 255 255
0.011899 -0.021987 -0.025000 0.000000 -0.000000 -1.000000 64 205 255 255
0.008117 -0.023645 -0.025000 0.000000 -0.000000 -1.000000 65 205 255 255
0.015355 -0.019729 -0.025000 0.000000 -0.000000 -1.000000 64 205 255 255
0.018393 -0.016932 -0.025000 0.000000 -0.000000 -1.000000 64 205 255 255
0.020929 -0.013674 -0.025000 0.000000 0.000000 -1.000000 64 205 255 255
0.004115 -0.024659 -0.025000 -0.000000 0.000000 -1.000000 64 205 255 255
-0.150355 0.019729 -0.025000 -0.000000 0.000000 -1.000000 65 205 255 255
-0.146899 0.021987 -0.025000 0.000000 0.000000 -1.000000 68 205 255 255
3 0 1 2
3 0 2 3
3 4 5 6
3 4 6 7
3 8 9 10
3 8 10 11
3 12 13 14
3 12 14 15
3 16 17 18
3 16 18 19
3 20 21 22
3 20 22 23
3 24 25 26
3 24 26 27
3 28 29 30
3 28 30 31
3 32 33 34
3 32 34 35
3 36 37 38
3 36 38 39
3 40 41 42
3 40 42 43
3 44 45 46
3 44 46 47
3 48 49 50
3 48 50 51
3 52 53 54
3 52 54 55
3 56 57 58
3 56 58 59
3 60 61 62
3 60 62 63
3 64 65 66
3 64 66 67
3 68 69 70
3 68 70 71
3 72 73 74
3 72 74 75
3 76 77 78
3 78 77 79
3 80 81 82
3 80 82 83
3 84 85 86
3 84 86 87
3 88 89 90
3 88 90 91
3 92 93 94
3 92 94 95
3 96 97 98
3 96 98 99
3 100 101 102
3 100 102 103
3 104 105 106
3 104 106 107
3 108 109 110
3 108 110 111
3 112 113 114
3 112 114 115
3 116 117 118
3 116 118 119
3 120 121 122
3 120 122 123
3 124 125 126
3 124 126 127
3 128 129 130
3 128 130 131
3 132 133 134
3 132 134 135
3 136 137 138
3 136 138 139
3 140 141 142
3 140 142 143
3 144 145 146
3 144 146 147
3 148 149 150
3 148 150 151
3 152 153 154
3 152 154 155
3 156 157 158
3 158 157 159
3 160 161 162
3 162 161 163
3 162 163 164
3 165 166 167
3 168 167 169
3 169 167 170
3 171 172 173
3 160 162 167
3 167 162 174
3 167 174 165
3 168 175 167
3 167 175 176
3 167 176 177
3 178 179 163
3 163 179 180
3 163 180 164
3 166 181 167
3 167 181 182
3 167 182 170
3 177 183 167
3 167 183 184
3 167 184 185
3 186 187 188
3 188 187 189
3 189 187 184
3 184 187 190
3 184 190 185
3 178 163 173
3 173 163 191
3 173 191 171
3 172 192 173
3 173 192 193
3 173 193 194
3 194 195 173
3 173 195 196
3 173 196 197
3 197 196 198
3 197 198 199
3 200 201 202
3 202 203 200
3 200 203 204
3 200 204 205
3 205 206 200
3 200 206 207
3 200 207 208
3 209 210 208
3 208 210 211
3 208 211 200
3 212 213 214
3 201 215 202
3 202 215 216
3 202 216 217
3 218 219 202
3 202 219 220
3 202 220 221
3 209 222 210
3 210 222 223
3 210 223 212
3 214 224 212
3 212 224 225
3 212 225 226
3 217 227 202
3 202 227 228
3 202 228 218
3 221 229 202
3 202 229 230
3 202 230 231
3 232 233 234
3 234 233 235
3 231 236 202
3 202 236 235
3 202 235 237
3 237 235 233
3 226 238 212
3 212 238 239
3 212 239 210
