ply
format ascii 1.0
comment Created by Blender 2.83.1 - www.blender.org, source file: 'Dobot.blend'
element vertex 240
property float x
property float y
property float z
property float nx
property float ny
property float nz
property uchar red
property uchar green
property uchar blue
property uchar alpha
element face 156
property list uchar uint vertex_indices
end_header
0.000000 -0.024890 0.025000 0.082580 -0.996584 0.000000 160 255 229 255
0.000000 -0.024890 -0.025000 0.082580 -0.996584 0.000000 125 255 221 255
0.004115 -0.024549 -0.025000 0.082580 -0.996584 0.000000 125 255 221 255
0.004115 -0.024549 0.025000 0.082580 -0.996584 0.000000 131 255 223 255
0.004115 -0.024549 0.025000 0.245485 -0.969400 0.000000 131 255 223 255
0.004115 -0.024549 -0.025000 0.245485 -0.969400 0.000000 125 255 221 255
0.008117 -0.023536 -0.025000 0.245485 -0.969400 0.000000 125 255 221 255
0.008117 -0.023536 0.025000 0.245485 -0.969400 0.000000 125 255 221 255
0.008117 -0.023536 0.025000 0.401696 -0.915773 0.000000 125 255 221 255
0.008117 -0.023536 -0.025000 0.401696 -0.915773 0.000000 125 255 221 255
0.011899 -0.021877 -0.025000 0.401696 -0.915773 0.000000 125 255 221 255
0.011899 -0.021877 0.025000 0.401696 -0.915773 0.000000 125 255 221 255
0.011899 -0.021877 0.025000 0.546948 -0.837167 0.000000 125 255 221 255
0.011899 -0.021877 -0.025000 0.546948 -0.837167 0.000000 125 255 221 255
0.015355 -0.019619 -0.025000 0.546948 -0.837167 0.000000 125 255 221 255
0.015355 -0.019619 0.025000 0.546948 -0.837167 0.000000 125 255 221 255
0.015355 -0.019619 0.025000 0.677282 -0.735723 0.000000 125 255 221 255
0.015355 -0.019619 -0.025000 0.677282 -0.735723 0.000000 125 255 221 255
0.018393 -0.016822 -0.025000 0.677282 -0.735723 0.000000 125 255 221 255
0.018393 -0.016822 0.025000 0.677282 -0.735723 0.000000 125 255 221 255
0.018393 -0.016822 0.025000 0.789140 -0.614213 0.000000 125 255 221 255
0.018393 -0.016822 -0.025000 0.789140 -0.614213 0.000000 125 255 221 255
0.020929 -0.013564 -0.025000 0.789140 -0.614213 0.000000 125 255 221 255
0.020929 -0.013564 0.025000 0.789140 -0.614213 0.000000 125 255 221 255
0.020929 -0.013564 0.025000 0.879474 -0.475947 0.000000 125 255 221 255
0.020929 -0.013564 -0.025000 0.879474 -0.475947 0.000000 125 255 221 255
0.022894 -0.009933 -0.025000 0.879474 -0.475947 0.000000 125 255 221 255
0.022894 -0.009933 0.025000 0.879474 -0.475947 0.000000 125 255 221 255
0.022894 -0.009933 0.025000 0.945817 -0.324700 0.000000 125 255 221 255
0.022894 -0.009933 -0.025000 0.945817 -0.324700 0.000000 125 255 221 255
0.024235 -0.006027 -0.025000 0.945817 -0.324700 0.000000 125 255 221 255
0.024235 -0.006027 0.025000 0.945817 -0.324700 0.000000 125 255 221 255
0.024235 -0.006027 0.025000 0.986361 -0.164594 0.000000 125 255 221 255
0.024235 -0.006027 -0.025000 0.986361 -0.164594 0.000000 125 255 221 255
0.024915 -0.001955 -0.025000 0.986361 -0.164594 0.000000 125 255 221 255
0.024915 -0.001955 0.025000 0.986361 -0.164594 0.000000 125 255 221 255
0.024915 -0.001955 0.025000 1.000000 0.000000 -0.000000 125 255 221 255
0.024915 -0.001955 -0.025000 1.000000 0.000000 -0.000000 125 255 221 255
0.024915 0.002174 -0.025000 1.000000 0.000000 -0.000000 125 255 221 255
0.024915 0.002174 0.025000 1.000000 0.000000 0.000000 126 255 222 255
0.024915 0.002174 0.025000 0.986361 0.164594 -0.000000 126 255 222 255
0.024915 0.002174 -0.025000 0.986361 0.164594 -0.000000 125 255 221 255
0.024235 0.006247 -0.025000 0.986361 0.164594 -0.000000 125 255 221 255
0.024235 0.006247 0.025000 0.986361 0.164594 0.000000 127 255 222 255
0.024235 0.006247 0.025000 0.945817 0.324700 -0.000000 127 255 222 255
0.024235 0.006247 -0.025000 0.945817 0.324700 -0.000000 125 255 221 255
0.022894 0.010152 -0.025000 0.945817 0.324700 -0.000000 125 255 221 255
0.022894 0.010152 0.025000 0.945817 0.324700 0.000000 125 255 221 255
0.022894 0.010152 0.025000 0.879474 0.475948 -0.000000 125 255 221 255
0.022894 0.010152 -0.025000 0.879474 0.475948 -0.000000 125 255 221 255
0.020929 0.013784 -0.025000 0.879474 0.475948 -0.000000 125 255 221 255
0.020929 0.013784 0.025000 0.879474 0.475948 0.000000 125 255 221 255
0.020929 0.013784 0.025000 0.789140 0.614213 -0.000000 125 255 221 255
0.020929 0.013784 -0.025000 0.789140 0.614213 -0.000000 125 255 221 255
0.018393 0.017042 -0.025000 0.789140 0.614213 -0.000000 125 255 221 255
0.018393 0.017042 0.025000 0.789140 0.614213 0.000000 125 255 221 255
0.018393 0.017042 0.025000 0.677282 0.735723 -0.000000 125 255 221 255
0.018393 0.017042 -0.025000 0.677282 0.735723 -0.000000 125 255 221 255
0.015355 0.019838 -0.025000 0.677282 0.735723 -0.000000 125 255 221 255
0.015355 0.019838 0.025000 0.677282 0.735723 0.000000 125 255 221 255
0.015355 0.019838 0.025000 0.546948 0.837167 -0.000000 125 255 221 255
0.015355 0.019838 -0.025000 0.546948 0.837167 -0.000000 125 255 221 255
0.011899 0.022097 -0.025000 0.546948 0.837167 -0.000000 125 255 221 255
0.011899 0.022097 0.025000 0.546948 0.837167 0.000000 125 255 221 255
0.011899 0.022097 0.025000 0.401695 0.915773 -0.000000 125 255 221 255
0.011899 0.022097 -0.025000 0.401695 0.915773 -0.000000 125 255 221 255
0.008117 0.023755 -0.025000 0.401695 0.915773 -0.000000 125 255 221 255
0.008117 0.023755 0.025000 0.401695 0.915773 0.000000 125 255 221 255
0.008117 0.023755 0.025000 0.245485 0.969400 -0.000000 125 255 221 255
0.008117 0.023755 -0.025000 0.245485 0.969400 -0.000000 125 255 221 255
0.004115 0.024769 -0.025000 0.245485 0.969400 -0.000000 125 255 221 255
0.004115 0.024769 0.025000 0.245485 0.969400 0.000000 125 255 221 255
0.004115 0.024769 0.025000 0.082580 0.996584 -0.000000 125 255 221 255
0.004115 0.024769 -0.025000 0.082580 0.996584 -0.000000 125 255 221 255
-0.000000 0.025110 -0.025000 0.082580 0.996584 -0.000000 125 255 221 255
-0.000000 0.025110 0.025000 0.082580 0.996584 0.000000 125 255 221 255
-0.138000 0.025110 0.025000 -0.000000 1.000000 0.000000 125 255 221 255
-0.000000 0.025110 0.025000 -0.000000 1.000000 0.000000 125 255 221 255
-0.138000 0.025110 -0.025000 -0.000000 1.000000 0.000000 125 255 221 255
-0.000000 0.025110 -0.025000 -0.000000 1.000000 0.000000 125 255 221 255
-0.138000 0.025110 0.025000 -0.082580 0.996584 0.000000 125 255 221 255
-0.138000 0.025110 -0.025000 -0.082580 0.996584 0.000000 125 255 221 255
-0.142115 0.024769 -0.025000 -0.082580 0.996584 0.000000 125 255 221 255
-0.142115 0.024769 0.025000 -0.082580 0.996584 0.000000 125 255 221 255
-0.142115 0.024769 0.025000 -0.245486 0.969400 0.000000 125 255 221 255
-0.142115 0.024769 -0.025000 -0.245486 0.969400 0.000000 125 255 221 255
-0.146117 0.023755 -0.025000 -0.245486 0.969400 0.000000 125 255 221 255
-0.146117 0.023755 0.025000 -0.245486 0.969400 0.000000 125 255 221 255
-0.146117 0.023755 0.025000 -0.401695 0.915773 0.000000 125 255 221 255
-0.146117 0.023755 -0.025000 -0.401695 0.915773 0.000000 125 255 221 255
-0.149899 0.022097 -0.025000 -0.401695 0.915773 0.000000 125 255 221 255
-0.149899 0.022097 0.025000 -0.401695 0.915773 0.000000 125 255 221 255
-0.149899 0.022097 0.025000 -0.546947 0.837167 0.000000 125 255 221 255
-0.149899 0.022097 -0.025000 -0.546947 0.837167 0.000000 125 255 221 255
-0.153355 0.019838 -0.025000 -0.546947 0.837167 0.000000 125 255 221 255
-0.153355 0.019838 0.025000 -0.546947 0.837167 0.000000 125 255 221 255
-0.153355 0.019838 0.025000 -0.677282 0.735724 0.000000 125 255 221 255
-0.153355 0.019838 -0.025000 -0.677282 0.735724 0.000000 125 255 221 255
-0.156393 0.017042 -0.025000 -0.677282 0.735724 0.000000 125 255 221 255
-0.156393 0.017042 0.025000 -0.677282 0.735724 0.000000 125 255 221 255
-0.156393 0.017042 0.025000 -0.789141 0.614212 0.000000 125 255 221 255
-0.156393 0.017042 -0.025000 -0.789141 0.614212 0.000000 125 255 221 255
-0.158929 0.013784 -0.025000 -0.789141 0.614212 0.000000 125 255 221 255
-0.158929 0.013784 0.025000 -0.789141 0.614212 0.000000 125 255 221 255
-0.158929 0.013784 0.025000 -0.879474 0.475946 0.000000 125 255 221 255
-0.158929 0.013784 -0.025000 -0.879474 0.475946 0.000000 125 255 221 255
-0.160894 0.010152 -0.025000 -0.879474 0.475946 0.000000 125 255 221 255
-0.160894 0.010152 0.025000 -0.879474 0.475946 0.000000 125 255 221 255
-0.160894 0.010152 0.025000 -0.945817 0.324699 0.000000 125 255 221 255
-0.160894 0.010152 -0.025000 -0.945817 0.324699 0.000000 125 255 221 255
-0.162235 0.006247 -0.025000 -0.945817 0.324699 0.000000 125 255 221 255
-0.162235 0.006247 0.025000 -0.945817 0.324699 0.000000 125 255 221 255
-0.162235 0.006247 0.025000 -0.986361 0.164596 0.000000 125 255 221 255
-0.162235 0.006247 -0.025000 -0.986361 0.164596 0.000000 125 255 221 255
-0.162915 0.002174 -0.025000 -0.986361 0.164596 0.000000 125 255 221 255
-0.162915 0.002174 0.025000 -0.986361 0.164596 0.000000 125 255 221 255
-0.162915 0.002174 0.025000 -1.000000 0.000000 0.000000 125 255 221 255
-0.162915 0.002174 -0.025000 -1.000000 0.000000 0.000000 125 255 221 255
-0.162915 -0.001955 -0.025000 -1.000000 0.000000 0.000000 125 255 221 255
-0.162915 -0.001955 0.025000 -1.000000 0.000000 0.000000 125 255 221 255
-0.162915 -0.001955 0.025000 -0.986361 -0.164596 0.000000 125 255 221 255
-0.162915 -0.001955 -0.025000 -0.986361 -0.164596 0.000000 125 255 221 255
-0.162235 -0.006027 -0.025000 -0.986361 -0.164596 0.000000 125 255 221 255
-0.162235 -0.006027 0.025000 -0.986361 -0.164596 -0.000000 125 255 221 255
-0.162235 -0.006027 0.025000 -0.945817 -0.324699 0.000000 125 255 221 255
-0.162235 -0.006027 -0.025000 -0.945817 -0.324699 0.000000 125 255 221 255
-0.160894 -0.009933 -0.025000 -0.945817 -0.324699 0.000000 125 255 221 255
-0.160894 -0.009933 0.025000 -0.945817 -0.324699 -0.000000 125 255 221 255
-0.160894 -0.009933 0.025000 -0.879475 -0.475946 0.000000 125 255 221 255
-0.160894 -0.009933 -0.025000 -0.879475 -0.475946 0.000000 125 255 221 255
-0.158929 -0.013564 -0.025000 -0.879475 -0.475946 0.000000 125 255 221 255
-0.158929 -0.013564 0.025000 -0.879475 -0.475946 -0.000000 127 255 221 255
-0.158929 -0.013564 0.025000 -0.789141 -0.614212 0.000000 127 255 221 255
-0.158929 -0.013564 -0.025000 -0.789141 -0.614212 0.000000 125 255 221 255
-0.156393 -0.016822 -0.025000 -0.789141 -0.614212 0.000000 125 255 221 255
-0.156393 -0.016822 0.025000 -0.789141 -0.614212 -0.000000 126 255 222 255
-0.156393 -0.016822 0.025000 -0.677282 -0.735723 0.000000 126 255 222 255
-0.156393 -0.016822 -0.025000 -0.677282 -0.735723 0.000000 125 255 221 255
-0.153355 -0.019619 -0.025000 -0.677282 -0.735723 0.000000 125 255 221 255
-0.153355 -0.019619 0.025000 -0.677282 -0.735723 -0.000000 125 255 221 255
-0.153355 -0.019619 0.025000 -0.546947 -0.837167 0.000000 125 255 221 255
-0.153355 -0.019619 -0.025000 -0.546947 -0.837167 0.000000 125 255 221 255
-0.149899 -0.021877 -0.025000 -0.546947 -0.837167 0.000000 125 255 221 255
-0.149899 -0.021877 0.025000 -0.546947 -0.837167 -0.000000 125 255 221 255
-0.149899 -0.021877 0.025000 -0.401696 -0.915773 0.000000 125 255 221 255
-0.149899 -0.021877 -0.025000 -0.401696 -0.915773 0.000000 125 255 221 255
-0.146117 -0.023536 -0.025000 -0.401696 -0.915773 0.000000 125 255 221 255
-0.146117 -0.023536 0.025000 -0.401696 -0.915773 -0.000000 125 255 221 255
-0.146117 -0.023536 0.025000 -0.245485 -0.969400 0.000000 125 255 221 255
-0.146117 -0.023536 -0.025000 -0.245485 -0.969400 0.000000 125 255 221 255
-0.142115 -0.024549 -0.025000 -0.245485 -0.969400 0.000000 125 255 221 255
-0.142115 -0.024549 0.025000 -0.245485 -0.969400 -0.000000 125 255 221 255
-0.142115 -0.024549 0.025000 -0.082580 -0.996584 0.000000 125 255 221 255
-0.142115 -0.024549 -0.025000 -0.082580 -0.996584 0.000000 125 255 221 255
-0.138000 -0.024890 -0.025000 -0.082580 -0.996584 0.000000 125 255 221 255
-0.138000 -0.024890 0.025000 -0.082580 -0.996584 -0.000000 125 255 221 255
0.000000 -0.024890 0.025000 0.000000 -1.000000 0.000000 160 255 229 255
-0.138000 -0.024890 0.025000 0.000000 -1.000000 0.000000 125 255 221 255
0.000000 -0.024890 -0.025000 0.000000 -1.000000 0.000000 125 255 221 255
-0.138000 -0.024890 -0.025000 0.000000 -1.000000 0.000000 125 255 221 255
0.015355 0.019838 0.025000 -0.000000 0.000000 1.000000 125 255 221 255
0.011899 0.022097 0.025000 -0.000000 0.000000 1.000000 125 255 221 255
0.008117 -0.023536 0.025000 -0.000000 0.000000 1.000000 125 255 221 255
0.008117 0.023755 0.025000 0.000000 -0.000000 1.000000 125 255 221 255
0.000000 -0.024890 0.025000 0.000000 -0.000000 1.000000 160 255 229 255
0.004115 -0.024549 0.025000 0.000000 -0.000000 1.000000 131 255 223 255
0.004115 0.024769 0.025000 -0.000000 0.000000 1.000000 125 255 221 255
-0.000000 0.025110 0.025000 0.000000 0.000000 1.000000 125 255 221 255
-0.138000 -0.024890 0.025000 -0.000000 0.000000 1.000000 125 255 221 255
-0.138000 0.025110 0.025000 -0.000000 0.000000 1.000000 125 255 221 255
-0.142115 0.024769 0.025000 -0.000000 0.000000 1.000000 125 255 221 255
-0.156393 -0.016822 0.025000 0.000000 0.000000 1.000000 126 255 222 255
-0.153355 -0.019619 0.025000 0.000000 0.000000 1.000000 125 255 221 255
-0.149899 -0.021877 0.025000 0.000000 0.000000 1.000000 125 255 221 255
-0.146117 0.023755 0.025000 0.000000 -0.000000 1.000000 125 255 221 255
-0.149899 0.022097 0.025000 -0.000000 0.000000 1.000000 125 255 221 255
-0.153355 0.019838 0.025000 -0.000000 0.000000 1.000000 125 255 221 255
-0.156393 0.017042 0.025000 0.000000 -0.000000 1.000000 125 255 221 255
-0.158929 0.013784 0.025000 -0.000000 0.000000 1.000000 125 255 221 255
-0.160894 0.010152 0.025000 -0.000000 0.000000 1.000000 125 255 221 255
-0.162235 0.006247 0.025000 0.000000 -0.000000 1.000000 125 255 221 255
-0.162915 0.002174 0.025000 -0.000000 0.000000 1.000000 125 255 221 255
-0.162915 -0.001955 0.025000 -0.000000 0.000000 1.000000 125 255 221 255
-0.158929 -0.013564 0.025000 0.000000 0.000000 1.000000 127 255 221 255
-0.162235 -0.006027 0.025000 0.000000 0.000000 1.000000 125 255 221 255
-0.160894 -0.009933 0.025000 -0.000000 -0.000000 1.000000 125 255 221 255
-0.142115 -0.024549 0.025000 -0.000000 -0.000000 1.000000 125 255 221 255
-0.146117 -0.023536 0.025000 0.000000 0.000000 1.000000 125 255 221 255
0.018393 0.017042 0.025000 0.000000 -0.000000 1.000000 125 255 221 255
0.011899 -0.021877 0.025000 0.000000 -0.000000 1.000000 125 255 221 255
0.015355 -0.019619 0.025000 0.000000 -0.000000 1.000000 125 255 221 255
0.024915 -0.001955 0.025000 0.000000 -0.000000 1.000000 125 255 221 255
0.020929 -0.013564 0.025000 0.000000 -0.000000 1.000000 125 255 221 255
0.024235 -0.006027 0.025000 0.000000 -0.000000 1.000000 125 255 221 255
0.022894 -0.009933 0.025000 0.000000 -0.000000 1.000000 125 255 221 255
0.024915 0.002174 0.025000 -0.000000 0.000000 1.000000 126 255 222 255
0.024235 0.006247 0.025000 0.000000 0.000000 1.000000 127 255 222 255
0.022894 0.010152 0.025000 0.000000 0.000000 1.000000 125 255 221 255
0.018393 -0.016822 0.025000 0.000000 0.000000 1.000000 125 255 221 255
0.020929 0.013784 0.025000 0.000000 0.000000 1.000000 125 255 221 255
0.000000 -0.024890 -0.025000 0.000000 0.000000 -1.000000 125 255 221 255
-0.138000 -0.024890 -0.025000 0.000000 0.000000 -1.000000 125 255 221 255
-0.138000 0.025110 -0.025000 0.000000 0.000000 -1.000000 125 255 221 255
-0.000000 0.025110 -0.025000 -0.000000 0.000000 -1.000000 125 255 221 255
0.004115 0.024769 -0.025000 -0.000000 -0.000000 -1.000000 125 255 221 255
0.008117 0.023755 -0.025000 -0.000000 0.000000 -1.000000 125 255 221 255
0.011899 0.022097 -0.025000 0.000000 0.000000 -1.000000 125 255 221 255
0.015355 0.019838 -0.025000 -0.000000 0.000000 -1.000000 125 255 221 255
0.018393 0.017042 -0.025000 -0.000000 0.000000 -1.000000 125 255 221 255
-0.160894 -0.009933 -0.025000 0.000000 0.000000 -1.000000 125 255 221 255
-0.142115 -0.024549 -0.025000 0.000000 0.000000 -1.000000 125 255 221 255
-0.162235 -0.006027 -0.025000 -0.000000 -0.000000 -1.000000 125 255 221 255
-0.162915 -0.001955 -0.025000 0.000000 0.000000 -1.000000 125 255 221 255
-0.162915 0.002174 -0.025000 0.000000 0.000000 -1.000000 125 255 221 255
-0.158929 0.013784 -0.025000 -0.000000 0.000000 -1.000000 125 255 221 255
-0.156393 0.017042 -0.025000 -0.000000 0.000000 -1.000000 125 255 221 255
-0.153355 0.019838 -0.025000 0.000000 -0.000000 -1.000000 125 255 221 255
-0.149899 0.022097 -0.025000 0.000000 -0.000000 -1.000000 125 255 221 255
-0.146117 0.023755 -0.025000 -0.000000 0.000000 -1.000000 125 255 221 255
-0.142115 0.024769 -0.025000 0.000000 -0.000000 -1.000000 125 255 221 255
0.020929 0.013784 -0.025000 0.000000 -0.000000 -1.000000 125 255 221 255
0.008117 -0.023536 -0.025000 0.000000 -0.000000 -1.000000 125 255 221 255
0.004115 -0.024549 -0.025000 0.000000 0.000000 -1.000000 125 255 221 255
-0.149899 -0.021877 -0.025000 0.000000 0.000000 -1.000000 125 255 221 255
-0.153355 -0.019619 -0.025000 0.000000 0.000000 -1.000000 125 255 221 255
-0.156393 -0.016822 -0.025000 0.000000 0.000000 -1.000000 125 255 221 255
-0.162235 0.006247 -0.025000 -0.000000 0.000000 -1.000000 125 255 221 255
-0.160894 0.010152 -0.025000 0.000000 -0.000000 -1.000000 125 255 221 255
-0.146117 -0.023536 -0.025000 0.000000 0.000000 -1.000000 125 255 221 255
-0.158929 -0.013564 -0.025000 0.000000 0.000000 -1.000000 125 255 221 255
0.024915 0.002174 -0.025000 0.000000 0.000000 -1.000000 125 255 221 255
0.024915 -0.001955 -0.025000 0.000000 0.000000 -1.000000 125 255 221 255
0.020929 -0.013564 -0.025000 0.000000 0.000000 -1.000000 125 255 221 255
0.024235 -0.006027 -0.025000 -0.000000 0.000000 -1.000000 125 255 221 255
0.022894 -0.009933 -0.025000 -0.000000 0.000000 -1.000000 125 255 221 255
0.022894 0.010152 -0.025000 0.000000 0.000000 -1.000000 125 255 221 255
0.024235 0.006247 -0.025000 -0.000000 0.000000 -1.000000 125 255 221 255
0.011899 -0.021877 -0.025000 -0.000000 0.000000 -1.000000 125 255 221 255
0.015355 -0.019619 -0.025000 -0.000000 0.000000 -1.000000 125 255 221 255
0.018393 -0.016822 -0.025000 0.000000 0.000000 -1.000000 125 255 221 255
3 0 1 2
3 0 2 3
3 4 5 6
3 4 6 7
3 8 9 10
3 8 10 11
3 12 13 14
3 12 14 15
3 16 17 18
3 16 18 19
3 20 21 22
3 20 22 23
3 24 25 26
3 24 26 27
3 28 29 30
3 28 30 31
3 32 33 34
3 32 34 35
3 36 37 38
3 36 38 39
3 40 41 42
3 40 42 43
3 44 45 46
3 44 46 47
3 48 49 50
3 48 50 51
3 52 53 54
3 52 54 55
3 56 57 58
3 56 58 59
3 60 61 62
3 60 62 63
3 64 65 66
3 64 66 67
3 68 69 70
3 68 70 71
3 72 73 74
3 72 74 75
3 76 77 78
3 78 77 79
3 80 81 82
3 80 82 83
3 84 85 86
3 84 86 87
3 88 89 90
3 88 90 91
3 92 93 94
3 92 94 95
3 96 97 98
3 96 98 99
3 100 101 102
3 100 102 103
3 104 105 106
3 104 106 107
3 108 109 110
3 108 110 111
3 112 113 114
3 112 114 115
3 116 117 118
3 116 118 119
3 120 121 122
3 120 122 123
3 124 125 126
3 124 126 127
3 128 129 130
3 128 130 131
3 132 133 134
3 132 134 135
3 136 137 138
3 136 138 139
3 140 141 142
3 140 142 143
3 144 145 146
3 144 146 147
3 148 149 150
3 148 150 151
3 152 153 154
3 152 154 155
3 156 157 158
3 158 157 159
3 160 161 162
3 163 164 161
3 161 164 165
3 161 165 162
3 163 166 164
3 164 166 167
3 164 167 168
3 168 167 169
3 168 169 170
3 171 172 173
3 170 174 168
3 168 174 175
3 168 175 176
3 176 177 168
3 168 177 178
3 168 178 179
3 179 180 168
3 168 180 181
3 168 181 182
3 171 173 183
3 182 184 168
3 168 184 185
3 168 185 186
3 183 173 185
3 185 173 187
3 185 187 186
3 160 162 188
3 188 162 189
3 188 189 190
3 191 192 193
3 193 192 194
3 191 195 192
3 192 195 196
3 192 196 197
3 190 198 188
3 188 198 192
3 188 192 199
3 199 192 197
3 200 201 202
3 202 203 200
3 200 203 204
3 200 204 205
3 205 206 200
3 200 206 207
3 200 207 208
3 209 201 210
3 209 211 201
3 201 211 212
3 201 212 213
3 214 215 201
3 201 215 216
3 201 216 217
3 217 218 201
3 201 218 219
3 201 219 202
3 220 221 208
3 208 221 222
3 208 222 200
3 223 224 225
3 213 226 201
3 201 226 227
3 201 227 214
3 210 228 209
3 209 228 223
3 209 223 229
3 229 223 225
3 230 231 232
3 232 231 233
3 232 233 234
3 220 235 221
3 221 235 236
3 221 236 237
3 237 236 238
3 230 232 236
3 236 232 239
3 236 239 238
