ply
format ascii 1.0
comment Created by Blender 2.83.1 - www.blender.org, source file: 'Dobot.blend'
element vertex 409
property float x
property float y
property float z
property float nx
property float ny
property float nz
property uchar red
property uchar green
property uchar blue
property uchar alpha
element face 230
property list uchar uint vertex_indices
end_header
0.000000 0.086027 0.053000 0.068241 0.000000 0.997669 147 255 220 255
0.007217 0.000027 0.052506 0.068241 0.000000 0.997669 171 255 226 255
0.007217 0.086027 0.052506 0.068241 0.000000 0.997669 147 255 220 255
0.007217 0.086027 0.052506 0.203456 -0.000000 0.979084 147 255 220 255
0.007217 0.000027 0.052506 0.203456 -0.000000 0.979084 171 255 226 255
0.014299 0.000027 0.051035 0.203456 -0.000000 0.979084 147 255 220 255
0.014299 0.086027 0.051035 0.203456 0.000000 0.979084 147 255 220 255
0.014299 0.086027 0.051035 0.334880 -0.000000 0.942261 147 255 220 255
0.014299 0.000027 0.051035 0.334880 -0.000000 0.942261 147 255 220 255
0.021115 0.000027 0.048612 0.334880 -0.000000 0.942261 147 255 220 255
0.021115 0.086027 0.048612 0.334880 0.000000 0.942261 149 255 221 255
0.021115 0.086027 0.048612 0.460065 -0.000000 0.887885 149 255 221 255
0.021115 0.000027 0.048612 0.460065 -0.000000 0.887885 147 255 220 255
0.027538 0.000027 0.045284 0.460065 -0.000000 0.887885 147 255 220 255
0.027538 0.086027 0.045284 0.460065 0.000000 0.887885 148 255 220 255
0.027538 0.086027 0.045284 0.576681 -0.000000 0.816970 148 255 220 255
0.027538 0.000027 0.045284 0.576681 -0.000000 0.816970 147 255 220 255
0.033448 0.000027 0.041113 0.576681 -0.000000 0.816970 147 255 220 255
0.033448 0.086027 0.041113 0.576681 0.000000 0.816970 147 255 220 255
0.033448 0.086027 0.041113 0.682553 -0.000000 0.730836 147 255 220 255
0.033448 0.000027 0.041113 0.682553 -0.000000 0.730836 147 255 220 255
0.038734 0.000027 0.036175 0.682553 -0.000000 0.730836 147 255 220 255
0.038734 0.086027 0.036175 0.682553 0.000000 0.730836 147 255 220 255
0.038734 0.086027 0.036175 0.775711 -0.000000 0.631088 147 255 220 255
0.038734 0.000027 0.036175 0.775711 -0.000000 0.631088 147 255 220 255
0.043299 0.000027 0.030564 0.775711 -0.000000 0.631088 147 255 220 255
0.043299 0.086027 0.030564 0.775711 -0.000000 0.631088 147 255 220 255
0.043299 0.086027 0.030564 0.854419 -0.000000 0.519584 147 255 220 255
0.043299 0.000027 0.030564 0.854419 -0.000000 0.519584 147 255 220 255
0.047058 0.000027 0.024383 0.854419 -0.000000 0.519584 147 255 220 255
0.047058 0.086027 0.024383 0.854419 -0.000000 0.519584 147 255 220 255
0.047058 0.086027 0.024383 0.917211 -0.000000 0.398401 147 255 220 255
0.047058 0.000027 0.024383 0.917211 -0.000000 0.398401 147 255 220 255
0.049940 0.000027 0.017749 0.917211 -0.000000 0.398401 147 255 220 255
0.049940 0.086027 0.017749 0.917211 -0.000000 0.398401 147 255 220 255
0.049940 0.086027 0.017749 0.962917 -0.000000 0.269797 147 255 220 255
0.049940 0.000027 0.017749 0.962917 -0.000000 0.269797 147 255 220 255
0.051891 0.000027 0.010783 0.962917 -0.000000 0.269797 147 255 220 255
0.051891 0.086027 0.010783 0.962917 -0.000000 0.269797 147 255 220 255
0.051891 0.086027 0.010783 0.990686 -0.000000 0.136166 147 255 220 255
0.051891 0.000027 0.010783 0.990686 -0.000000 0.136166 147 255 220 255
0.052876 0.000027 0.003617 0.990686 -0.000000 0.136166 147 255 220 255
0.052876 0.086027 0.003617 0.990686 -0.000000 0.136166 147 255 220 255
0.052876 0.086027 0.003617 1.000000 0.000000 0.000000 147 255 220 255
0.052876 0.000027 0.003617 1.000000 0.000000 0.000000 147 255 220 255
0.052876 0.000027 -0.003617 1.000000 0.000000 0.000000 147 255 220 255
0.052876 0.086027 -0.003617 1.000000 0.000000 -0.000000 148 255 220 255
0.052876 0.086027 -0.003617 0.990686 0.000000 -0.136166 148 255 220 255
0.052876 0.000027 -0.003617 0.990686 0.000000 -0.136166 147 255 220 255
0.051891 0.000027 -0.010783 0.990686 0.000000 -0.136166 147 255 220 255
0.051891 0.086027 -0.010783 0.990686 0.000000 -0.136166 148 255 221 255
0.051891 0.086027 -0.010783 0.962917 0.000000 -0.269797 148 255 221 255
0.051891 0.000027 -0.010783 0.962917 0.000000 -0.269797 147 255 220 255
0.049940 0.000027 -0.017749 0.962917 0.000000 -0.269797 147 255 220 255
0.049940 0.086027 -0.017749 0.962917 0.000000 -0.269797 147 255 220 255
0.049940 0.086027 -0.017749 0.917211 0.000000 -0.398401 147 255 220 255
0.049940 0.000027 -0.017749 0.917211 0.000000 -0.398401 147 255 220 255
0.047058 0.000027 -0.024383 0.917211 0.000000 -0.398401 147 255 220 255
0.047058 0.086027 -0.024383 0.917211 0.000000 -0.398401 147 255 220 255
0.047058 0.086027 -0.024383 0.854419 0.000000 -0.519584 147 255 220 255
0.047058 0.000027 -0.024383 0.854419 0.000000 -0.519584 147 255 220 255
0.043299 0.000027 -0.030564 0.854419 0.000000 -0.519584 147 255 220 255
0.043299 0.086027 -0.030564 0.854419 0.000000 -0.519584 147 255 220 255
0.043299 0.086027 -0.030564 0.775711 0.000000 -0.631088 147 255 220 255
0.043299 0.000027 -0.030564 0.775711 0.000000 -0.631088 147 255 220 255
0.038734 0.000027 -0.036175 0.775711 0.000000 -0.631088 147 255 220 255
0.038734 0.086027 -0.036175 0.775711 0.000000 -0.631088 147 255 220 255
0.038734 0.086027 -0.036175 0.682553 0.000000 -0.730836 147 255 220 255
0.038734 0.000027 -0.036175 0.682553 0.000000 -0.730836 147 255 220 255
0.033448 0.000027 -0.041113 0.682553 0.000000 -0.730836 148 255 220 255
0.033448 0.086027 -0.041113 0.682553 0.000000 -0.730836 147 255 220 255
0.033448 0.086027 -0.041113 0.576681 0.000000 -0.816970 147 255 220 255
0.033448 0.000027 -0.041113 0.576681 0.000000 -0.816970 148 255 220 255
0.027538 0.000027 -0.045284 0.576681 0.000000 -0.816970 148 255 220 255
0.027538 0.086027 -0.045284 0.576681 0.000000 -0.816970 147 255 220 255
0.027538 0.086027 -0.045284 0.460065 0.000000 -0.887885 147 255 220 255
0.027538 0.000027 -0.045284 0.460065 0.000000 -0.887885 148 255 220 255
0.021115 0.000027 -0.048612 0.460065 0.000000 -0.887885 147 255 220 255
0.021115 0.086027 -0.048612 0.460065 0.000000 -0.887885 147 255 220 255
0.021115 0.086027 -0.048612 0.334879 0.000000 -0.942261 147 255 220 255
0.021115 0.000027 -0.048612 0.334879 0.000000 -0.942261 147 255 220 255
0.014299 0.000027 -0.051035 0.334879 0.000000 -0.942261 147 255 220 255
0.014299 0.086027 -0.051035 0.334879 0.000000 -0.942261 147 255 220 255
0.014299 0.086027 -0.051035 0.203456 0.000000 -0.979084 147 255 220 255
0.014299 0.000027 -0.051035 0.203456 0.000000 -0.979084 147 255 220 255
0.007217 0.000027 -0.052506 0.203456 0.000000 -0.979084 147 255 220 255
0.007217 0.086027 -0.052506 0.203456 0.000000 -0.979084 147 255 220 255
0.007217 0.086027 -0.052506 0.068243 0.000000 -0.997669 147 255 220 255
0.007217 0.000027 -0.052506 0.068243 0.000000 -0.997669 147 255 220 255
0.000000 0.000027 -0.053000 0.068243 0.000000 -0.997669 147 255 220 255
0.000000 0.086027 -0.053000 0.068243 0.000000 -0.997669 147 255 220 255
0.000000 0.086027 -0.053000 -0.068243 0.000000 -0.997669 147 255 220 255
0.000000 0.000027 -0.053000 -0.068243 0.000000 -0.997669 147 255 220 255
-0.007217 0.000027 -0.052506 -0.068243 0.000000 -0.997669 147 255 220 255
-0.007217 0.086027 -0.052506 -0.068243 -0.000000 -0.997669 147 255 220 255
-0.007217 0.086027 -0.052506 -0.203456 0.000000 -0.979084 147 255 220 255
-0.007217 0.000027 -0.052506 -0.203456 0.000000 -0.979084 147 255 220 255
-0.014299 0.000027 -0.051035 -0.203456 0.000000 -0.979084 147 255 220 255
-0.014299 0.086027 -0.051035 -0.203456 -0.000000 -0.979084 147 255 220 255
-0.014299 0.086027 -0.051035 -0.334879 0.000000 -0.942261 147 255 220 255
-0.014299 0.000027 -0.051035 -0.334879 0.000000 -0.942261 147 255 220 255
-0.021115 0.000027 -0.048612 -0.334879 0.000000 -0.942261 147 255 220 255
-0.021115 0.086027 -0.048612 -0.334879 -0.000000 -0.942261 147 255 220 255
-0.021115 0.086027 -0.048612 -0.460065 0.000000 -0.887885 147 255 220 255
-0.021115 0.000027 -0.048612 -0.460065 0.000000 -0.887885 147 255 220 255
-0.027538 0.000027 -0.045284 -0.460065 0.000000 -0.887885 147 255 220 255
-0.027538 0.086027 -0.045284 -0.460065 -0.000000 -0.887885 147 255 220 255
-0.027538 0.086027 -0.045284 -0.576680 0.000000 -0.816970 147 255 220 255
-0.027538 0.000027 -0.045284 -0.576680 0.000000 -0.816970 147 255 220 255
-0.033448 0.000027 -0.041113 -0.576680 0.000000 -0.816970 147 255 220 255
-0.033448 0.086027 -0.041113 -0.576680 -0.000000 -0.816970 147 255 220 255
-0.033448 0.086027 -0.041113 -0.682553 0.000000 -0.730836 147 255 220 255
-0.033448 0.000027 -0.041113 -0.682553 0.000000 -0.730836 147 255 220 255
-0.038734 0.000027 -0.036175 -0.682553 0.000000 -0.730836 147 255 220 255
-0.038734 0.086027 -0.036175 -0.682553 -0.000000 -0.730836 147 255 220 255
-0.038734 0.086027 -0.036175 -0.775712 0.000000 -0.631088 147 255 220 255
-0.038734 0.000027 -0.036175 -0.775712 0.000000 -0.631088 147 255 220 255
-0.043299 0.000027 -0.030564 -0.775712 0.000000 -0.631088 147 255 220 255
-0.043299 0.086027 -0.030564 -0.775712 0.000000 -0.631088 147 255 220 255
-0.043299 0.086027 -0.030564 -0.854420 0.000000 -0.519583 147 255 220 255
-0.043299 0.000027 -0.030564 -0.854420 0.000000 -0.519583 147 255 220 255
-0.047058 0.000027 -0.024383 -0.854420 0.000000 -0.519583 147 255 220 255
-0.047058 0.086027 -0.024383 -0.854420 0.000000 -0.519583 147 255 220 255
-0.047058 0.086027 -0.024383 -0.917211 0.000000 -0.398402 147 255 220 255
-0.047058 0.000027 -0.024383 -0.917211 0.000000 -0.398402 147 255 220 255
-0.049940 0.000027 -0.017749 -0.917211 0.000000 -0.398402 147 255 220 255
-0.049940 0.086027 -0.017749 -0.917211 0.000000 -0.398402 147 255 220 255
-0.049940 0.086027 -0.017749 -0.962917 0.000000 -0.269796 147 255 220 255
-0.049940 0.000027 -0.017749 -0.962917 0.000000 -0.269796 147 255 220 255
-0.051891 0.000027 -0.010783 -0.962917 0.000000 -0.269796 147 255 220 255
-0.051891 0.086027 -0.010783 -0.962917 0.000000 -0.269796 147 255 220 255
-0.051891 0.086027 -0.010783 -0.990686 0.000000 -0.136167 147 255 220 255
-0.051891 0.000027 -0.010783 -0.990686 0.000000 -0.136167 147 255 220 255
-0.052876 0.000027 -0.003617 -0.990686 0.000000 -0.136167 147 255 220 255
-0.052876 0.086027 -0.003617 -0.990686 0.000000 -0.136167 147 255 220 255
-0.052876 0.086027 -0.003617 -1.000000 0.000000 0.000000 147 255 220 255
-0.052876 0.000027 -0.003617 -1.000000 0.000000 0.000000 147 255 220 255
-0.052876 0.000027 0.003617 -1.000000 0.000000 0.000000 147 255 220 255
-0.052876 0.086027 0.003617 -1.000000 0.000000 -0.000000 147 255 220 255
-0.052876 0.086027 0.003617 -0.990686 -0.000000 0.136167 147 255 220 255
-0.052876 0.000027 0.003617 -0.990686 -0.000000 0.136167 147 255 220 255
-0.051891 0.000027 0.010783 -0.990686 -0.000000 0.136167 147 255 220 255
-0.051891 0.086027 0.010783 -0.990686 -0.000000 0.136167 147 255 220 255
-0.051891 0.086027 0.010783 -0.962917 -0.000000 0.269796 147 255 220 255
-0.051891 0.000027 0.010783 -0.962917 -0.000000 0.269796 147 255 220 255
-0.049940 0.000027 0.017749 -0.962917 -0.000000 0.269796 147 255 220 255
-0.049940 0.086027 0.017749 -0.962917 -0.000000 0.269796 147 255 220 255
-0.049940 0.086027 0.017749 -0.917211 -0.000000 0.398402 147 255 220 255
-0.049940 0.000027 0.017749 -0.917211 -0.000000 0.398402 147 255 220 255
-0.047058 0.000027 0.024383 -0.917211 -0.000000 0.398402 147 255 220 255
-0.047058 0.086027 0.024383 -0.917211 -0.000000 0.398402 147 255 220 255
-0.047058 0.086027 0.024383 -0.854420 -0.000000 0.519583 147 255 220 255
-0.047058 0.000027 0.024383 -0.854420 -0.000000 0.519583 147 255 220 255
-0.043299 0.000027 0.030564 -0.854420 -0.000000 0.519583 147 255 220 255
-0.043299 0.086027 0.030564 -0.854420 -0.000000 0.519583 147 255 220 255
-0.043299 0.086027 0.030564 -0.775711 -0.000000 0.631088 147 255 220 255
-0.043299 0.000027 0.030564 -0.775711 -0.000000 0.631088 147 255 220 255
-0.038734 0.000027 0.036175 -0.775711 -0.000000 0.631088 147 255 220 255
-0.038734 0.086027 0.036175 -0.775711 0.000000 0.631088 147 255 220 255
-0.038734 0.086027 0.036175 -0.682553 0.000000 0.730836 147 255 220 255
-0.038734 0.000027 0.036175 -0.682553 0.000000 0.730836 147 255 220 255
-0.033448 0.000027 0.041113 -0.682553 0.000000 0.730836 147 255 220 255
-0.033448 0.086027 0.041113 -0.682553 0.000000 0.730836 147 255 220 255
-0.033448 0.086027 0.041113 -0.576680 0.000000 0.816970 147 255 220 255
-0.033448 0.000027 0.041113 -0.576680 0.000000 0.816970 147 255 220 255
-0.027538 0.000027 0.045284 -0.576680 0.000000 0.816970 147 255 220 255
-0.027538 0.086027 0.045284 -0.576680 0.000000 0.816970 147 255 220 255
-0.027538 0.086027 0.045284 -0.460065 0.000000 0.887885 147 255 220 255
-0.027538 0.000027 0.045284 -0.460065 0.000000 0.887885 147 255 220 255
-0.021115 0.000027 0.048612 -0.460065 0.000000 0.887885 147 255 220 255
-0.021115 0.086027 0.048612 -0.460065 0.000000 0.887885 148 255 221 255
-0.021115 0.086027 0.048612 -0.334880 0.000000 0.942261 148 255 221 255
-0.021115 0.000027 0.048612 -0.334880 0.000000 0.942261 147 255 220 255
-0.014299 0.000027 0.051035 -0.334880 0.000000 0.942261 147 255 220 255
-0.014299 0.086027 0.051035 -0.334880 0.000000 0.942261 147 255 220 255
-0.014299 0.086027 0.051035 -0.203456 0.000000 0.979084 147 255 220 255
-0.014299 0.000027 0.051035 -0.203456 0.000000 0.979084 147 255 220 255
-0.007217 0.000027 0.052506 -0.203456 0.000000 0.979084 147 255 220 255
-0.007217 0.086027 0.052506 -0.203456 0.000000 0.979084 148 255 220 255
-0.007217 0.086027 0.052506 -0.068242 0.000000 0.997669 148 255 220 255
-0.007217 0.000027 0.052506 -0.068242 0.000000 0.997669 147 255 220 255
0.000000 0.000027 0.053000 -0.068242 0.000000 0.997669 152 255 222 255
0.000000 0.086027 0.053000 -0.068242 0.000000 0.997669 147 255 220 255
0.000000 0.000027 0.053000 0.068241 -0.000000 0.997669 152 255 222 255
0.000000 0.086027 0.053000 0.000000 1.000000 -0.000000 147 255 220 255
0.007217 0.086027 0.052506 0.000000 1.000000 -0.000000 147 255 220 255
0.000000 0.086027 0.000000 0.000000 1.000000 -0.000000 147 255 220 255
-0.021115 0.086027 0.048612 0.000000 1.000000 0.000000 148 255 221 255
-0.014299 0.086027 0.051035 0.000000 1.000000 0.000000 147 255 220 255
-0.007217 0.086027 0.052506 0.000000 1.000000 0.000000 148 255 220 255
-0.038734 0.086027 0.036175 0.000000 1.000000 0.000000 147 255 220 255
-0.033448 0.086027 0.041113 0.000000 1.000000 0.000000 147 255 220 255
-0.027538 0.086027 0.045284 0.000000 1.000000 0.000000 147 255 220 255
-0.049940 0.086027 0.017749 0.000000 1.000000 0.000000 147 255 220 255
-0.047058 0.086027 0.024383 0.000000 1.000000 0.000000 147 255 220 255
-0.043299 0.086027 0.030564 0.000000 1.000000 0.000000 147 255 220 255
-0.052876 0.086027 -0.003617 0.000000 1.000000 0.000000 147 255 220 255
-0.052876 0.086027 0.003617 0.000000 1.000000 0.000000 147 255 220 255
-0.051891 0.086027 0.010783 0.000000 1.000000 0.000000 147 255 220 255
-0.047058 0.086027 -0.024383 0.000000 1.000000 0.000000 147 255 220 255
-0.049940 0.086027 -0.017749 0.000000 1.000000 0.000000 147 255 220 255
-0.051891 0.086027 -0.010783 -0.000000 1.000000 0.000000 147 255 220 255
-0.033448 0.086027 -0.041113 0.000000 1.000000 0.000000 147 255 220 255
-0.038734 0.086027 -0.036175 0.000000 1.000000 0.000000 147 255 220 255
-0.043299 0.086027 -0.030564 -0.000000 1.000000 0.000000 147 255 220 255
-0.014299 0.086027 -0.051035 0.000000 1.000000 0.000000 147 255 220 255
-0.021115 0.086027 -0.048612 0.000000 1.000000 0.000000 147 255 220 255
-0.027538 0.086027 -0.045284 -0.000000 1.000000 0.000000 147 255 220 255
0.007217 0.086027 -0.052506 -0.000000 1.000000 0.000000 147 255 220 255
0.000000 0.086027 -0.053000 -0.000000 1.000000 0.000000 147 255 220 255
-0.007217 0.086027 -0.052506 -0.000000 1.000000 0.000000 147 255 220 255
0.027538 0.086027 -0.045284 -0.000000 1.000000 0.000000 147 255 220 255
0.021115 0.086027 -0.048612 -0.000000 1.000000 0.000000 147 255 220 255
0.014299 0.086027 -0.051035 0.000000 1.000000 -0.000000 147 255 220 255
0.043299 0.086027 -0.030564 -0.000000 1.000000 0.000000 147 255 220 255
0.038734 0.086027 -0.036175 -0.000000 1.000000 0.000000 147 255 220 255
0.033448 0.086027 -0.041113 0.000000 1.000000 -0.000000 147 255 220 255
0.051891 0.086027 -0.010783 -0.000000 1.000000 0.000000 148 255 221 255
0.049940 0.086027 -0.017749 -0.000000 1.000000 0.000000 147 255 220 255
0.047058 0.086027 -0.024383 0.000000 1.000000 -0.000000 147 255 220 255
0.051891 0.086027 0.010783 0.000000 1.000000 -0.000000 147 255 220 255
0.052876 0.086027 0.003617 0.000000 1.000000 -0.000000 147 255 220 255
0.052876 0.086027 -0.003617 0.000000 1.000000 -0.000000 148 255 220 255
0.043299 0.086027 0.030564 0.000000 1.000000 -0.000000 147 255 220 255
0.047058 0.086027 0.024383 0.000000 1.000000 -0.000000 147 255 220 255
0.049940 0.086027 0.017749 0.000000 1.000000 0.000000 147 255 220 255
0.027538 0.086027 0.045284 0.000000 1.000000 -0.000000 148 255 220 255
0.033448 0.086027 0.041113 0.000000 1.000000 -0.000000 147 255 220 255
0.038734 0.086027 0.036175 0.000000 1.000000 0.000000 147 255 220 255
0.014299 0.086027 0.051035 0.000000 1.000000 -0.000000 147 255 220 255
0.021115 0.086027 0.048612 0.000000 1.000000 0.000000 149 255 221 255
-0.014299 0.000027 0.051035 -0.000000 1.000000 0.000001 255 255 255 255
-0.007217 0.000027 0.052506 -0.000000 1.000000 0.000001 255 255 255 255
0.000000 0.000027 0.000000 -0.000000 1.000000 0.000001 255 255 255 255
0.052876 0.000027 0.003617 -0.000001 -1.000000 -0.000000 147 255 220 255
0.051891 0.000027 0.010783 -0.000001 -1.000000 -0.000000 147 255 220 255
0.000000 0.000027 0.000000 -0.000001 -1.000000 -0.000000 147 255 220 255
-0.049940 0.000027 -0.017749 0.000001 -1.000000 0.000000 147 255 220 255
-0.047058 0.000027 -0.024383 0.000001 -1.000000 0.000000 147 255 220 255
0.000000 0.000027 0.000000 0.000001 -1.000000 0.000000 147 255 220 255
0.033448 0.000027 0.041113 -0.000000 -1.000000 -0.000001 255 255 255 255
0.027538 0.000027 0.045284 -0.000000 -1.000000 -0.000001 255 255 255 255
0.000000 0.000027 0.000000 -0.000000 -1.000000 -0.000001 255 255 255 255
-0.049940 0.000027 0.017749 0.000001 -1.000000 -0.000000 255 255 255 255
-0.051891 0.000027 0.010783 0.000001 -1.000000 -0.000000 255 255 255 255
0.000000 0.000027 0.000000 0.000001 -1.000000 -0.000000 255 255 255 255
0.038734 0.000027 0.036175 -0.000001 -1.000000 -0.000001 147 255 220 255
0.033448 0.000027 0.041113 -0.000001 -1.000000 -0.000001 147 255 220 255
0.000000 0.000027 0.000000 -0.000001 -1.000000 -0.000001 147 255 220 255
-0.027538 0.000027 -0.045284 0.000000 -1.000000 0.000001 147 255 220 255
-0.021115 0.000027 -0.048612 0.000000 -1.000000 0.000001 147 255 220 255
0.000000 0.000027 0.000000 0.000000 -1.000000 0.000001 147 255 220 255
0.021115 0.000027 0.048612 0.000000 1.000000 0.000001 255 255 255 255
0.027538 0.000027 0.045284 0.000000 1.000000 0.000001 255 255 255 255
-0.052876 0.000027 0.003617 0.000001 -1.000000 -0.000000 255 255 255 255
0.007217 0.000027 -0.052506 -0.000000 -1.000000 0.000001 147 255 220 255
0.014299 0.000027 -0.051035 -0.000000 -1.000000 0.000001 147 255 220 255
-0.052876 0.000027 -0.003617 0.000001 -1.000000 0.000000 255 255 255 255
-0.021115 0.000027 0.048612 0.000000 -1.000000 -0.000001 147 255 220 255
-0.027538 0.000027 0.045284 0.000000 -1.000000 -0.000001 147 255 220 255
0.000000 0.000027 0.000000 0.000000 -1.000000 -0.000001 147 255 220 255
-0.051891 0.000027 -0.010783 0.000001 -1.000000 0.000000 255 255 255 255
0.038734 0.000027 -0.036175 -0.000001 -1.000000 0.000000 147 255 220 255
0.043299 0.000027 -0.030564 -0.000001 -1.000000 0.000000 147 255 220 255
-0.047058 0.000027 0.024383 0.000001 -1.000000 -0.000000 147 255 220 255
-0.049940 0.000027 0.017749 0.000001 -1.000000 -0.000000 147 255 220 255
-0.049940 0.000027 -0.017749 0.000001 -1.000000 0.000000 255 255 255 255
0.052876 0.000027 -0.003617 -0.000001 -1.000000 -0.000000 147 255 220 255
0.052876 0.000027 0.003617 -0.000001 -1.000000 -0.000000 147 255 220 255
-0.051891 0.000027 -0.010783 0.000001 -1.000000 0.000000 147 255 220 255
-0.049940 0.000027 -0.017749 0.000001 -1.000000 0.000000 147 255 220 255
-0.047058 0.000027 -0.024383 0.000001 -1.000000 0.000000 255 255 255 255
0.043299 0.000027 0.030564 -0.000001 -1.000000 -0.000000 147 255 220 255
0.038734 0.000027 0.036175 -0.000001 -1.000000 -0.000000 147 255 220 255
-0.033448 0.000027 -0.041113 0.000000 -1.000000 0.000001 147 255 220 255
-0.027538 0.000027 -0.045284 0.000000 -1.000000 0.000001 147 255 220 255
-0.043299 0.000027 -0.030564 -0.000001 1.000000 -0.000000 255 255 255 255
-0.047058 0.000027 -0.024383 -0.000001 1.000000 -0.000000 255 255 255 255
0.000000 0.000027 0.000000 -0.000001 1.000000 -0.000000 255 255 255 255
0.014299 0.000027 0.051035 -0.000000 -1.000000 -0.000001 147 255 220 255
0.007217 0.000027 0.052506 -0.000000 -1.000000 -0.000001 171 255 226 255
0.000000 0.000027 -0.053000 -0.000000 -1.000000 0.000001 147 255 220 255
0.007217 0.000027 -0.052506 -0.000000 -1.000000 0.000001 147 255 220 255
-0.014299 0.000027 -0.051035 0.000000 -1.000000 0.000001 255 255 255 255
-0.007217 0.000027 -0.052506 0.000000 -1.000000 0.000001 255 255 255 255
0.000000 0.000027 0.000000 0.000000 -1.000000 0.000001 255 255 255 255
-0.014299 0.000027 0.051035 0.000000 -1.000000 -0.000001 147 255 220 255
-0.021115 0.000027 0.048612 0.000000 -1.000000 -0.000001 147 255 220 255
0.000000 0.000027 -0.053000 0.000000 -1.000000 0.000001 255 255 255 255
0.033448 0.000027 -0.041113 -0.000001 -1.000000 0.000001 148 255 220 255
0.038734 0.000027 -0.036175 -0.000001 -1.000000 0.000001 147 255 220 255
0.000000 0.000027 0.000000 -0.000001 -1.000000 0.000001 148 255 220 255
-0.043299 0.000027 -0.030564 0.000001 -1.000000 0.000000 255 255 255 255
-0.038734 0.000027 -0.036175 0.000001 -1.000000 0.000000 255 255 255 255
-0.043299 0.000027 0.030564 0.000001 -1.000000 -0.000000 147 255 220 255
-0.047058 0.000027 0.024383 0.000001 -1.000000 -0.000000 147 255 220 255
0.007217 0.000027 -0.052506 -0.000000 -1.000000 0.000001 255 255 255 255
-0.038734 0.000027 -0.036175 0.000001 -1.000000 0.000001 255 255 255 255
-0.033448 0.000027 -0.041113 0.000001 -1.000000 0.000001 255 255 255 255
0.000000 0.000027 0.000000 0.000001 -1.000000 0.000001 255 255 255 255
0.051891 0.000027 -0.010783 -0.000001 -1.000000 0.000000 147 255 220 255
0.052876 0.000027 -0.003617 -0.000001 -1.000000 0.000000 147 255 220 255
-0.052876 0.000027 -0.003617 0.000001 -1.000000 0.000000 147 255 220 255
-0.051891 0.000027 -0.010783 0.000001 -1.000000 0.000000 147 255 220 255
0.014299 0.000027 -0.051035 -0.000000 -1.000000 0.000001 255 255 255 255
-0.014299 0.000027 0.051035 0.000000 -1.000000 -0.000001 255 255 255 255
-0.021115 0.000027 0.048612 0.000000 -1.000000 -0.000001 255 255 255 255
0.047058 0.000027 0.024383 -0.000001 -1.000000 -0.000000 147 255 220 255
0.043299 0.000027 0.030564 -0.000001 -1.000000 -0.000000 147 255 220 255
-0.038734 0.000027 -0.036175 0.000001 -1.000000 0.000001 147 255 220 255
-0.033448 0.000027 -0.041113 0.000001 -1.000000 0.000001 147 255 220 255
0.000000 0.000027 0.000000 0.000001 -1.000000 0.000001 147 255 220 255
0.051891 0.000027 0.010783 -0.000001 -1.000000 -0.000000 255 255 255 255
0.049940 0.000027 0.017749 -0.000001 -1.000000 -0.000000 255 255 255 255
0.000000 0.000027 0.000000 -0.000001 -1.000000 -0.000000 255 255 255 255
-0.033448 0.000027 -0.041113 0.000000 -1.000000 0.000001 255 255 255 255
-0.027538 0.000027 -0.045284 0.000000 -1.000000 0.000001 255 255 255 255
0.021115 0.000027 0.048612 -0.000000 -1.000000 -0.000001 147 255 220 255
0.014299 0.000027 0.051035 -0.000000 -1.000000 -0.000001 147 255 220 255
-0.007217 0.000027 -0.052506 0.000000 -1.000000 0.000001 147 255 220 255
0.000000 0.000027 -0.053000 0.000000 -1.000000 0.000001 147 255 220 255
0.021115 0.000027 -0.048612 -0.000000 -1.000000 0.000001 255 255 255 255
-0.007217 0.000027 0.052506 0.000000 -1.000000 -0.000001 147 255 220 255
-0.014299 0.000027 0.051035 0.000000 -1.000000 -0.000001 147 255 220 255
-0.021115 0.000027 -0.048612 0.000000 -1.000000 0.000001 255 255 255 255
0.027538 0.000027 -0.045284 -0.000000 -1.000000 0.000001 255 255 255 255
0.027538 0.000027 -0.045284 -0.000000 -1.000000 0.000001 148 255 220 255
0.033448 0.000027 -0.041113 -0.000000 -1.000000 0.000001 148 255 220 255
0.000000 0.000027 0.000000 -0.000000 -1.000000 0.000001 148 255 220 255
-0.038734 0.000027 0.036175 0.000001 -1.000000 -0.000000 147 255 220 255
-0.043299 0.000027 0.030564 0.000001 -1.000000 -0.000000 147 255 220 255
0.033448 0.000027 -0.041113 -0.000000 -1.000000 0.000001 255 255 255 255
0.021115 0.000027 0.048612 -0.000000 -1.000000 -0.000001 255 255 255 255
0.014299 0.000027 0.051035 -0.000000 -1.000000 -0.000001 255 255 255 255
0.049940 0.000027 -0.017749 -0.000001 -1.000000 0.000000 147 255 220 255
0.051891 0.000027 -0.010783 -0.000001 -1.000000 0.000000 147 255 220 255
-0.052876 0.000027 0.003617 0.000001 -1.000000 0.000000 147 255 220 255
-0.052876 0.000027 -0.003617 0.000001 -1.000000 0.000000 147 255 220 255
0.049940 0.000027 -0.017749 -0.000001 -1.000000 0.000000 255 255 255 255
0.051891 0.000027 -0.010783 -0.000001 -1.000000 0.000000 255 255 255 255
-0.027538 0.000027 0.045284 0.000000 -1.000000 -0.000001 255 255 255 255
0.049940 0.000027 0.017749 -0.000001 -1.000000 -0.000000 147 255 220 255
0.047058 0.000027 0.024383 -0.000001 -1.000000 -0.000000 147 255 220 255
-0.043299 0.000027 -0.030564 0.000001 -1.000000 0.000000 147 255 220 255
-0.038734 0.000027 -0.036175 0.000001 -1.000000 0.000000 147 255 220 255
0.052876 0.000027 -0.003617 -0.000001 -1.000000 0.000000 255 255 255 255
-0.033448 0.000027 0.041113 0.000000 -1.000000 -0.000001 255 255 255 255
0.027538 0.000027 0.045284 -0.000000 -1.000000 -0.000001 147 255 220 255
0.021115 0.000027 0.048612 -0.000000 -1.000000 -0.000001 147 255 220 255
-0.014299 0.000027 -0.051035 0.000000 -1.000000 0.000001 147 255 220 255
-0.007217 0.000027 -0.052506 0.000000 -1.000000 0.000001 147 255 220 255
0.052876 0.000027 0.003617 -0.000001 -1.000000 -0.000000 255 255 255 255
0.000000 0.000027 0.053000 0.000000 -1.000000 -0.000001 152 255 222 255
-0.007217 0.000027 0.052506 0.000000 -1.000000 -0.000001 147 255 220 255
0.000000 0.000027 0.000000 0.000000 -1.000000 -0.000001 152 255 222 255
-0.033448 0.000027 0.041113 0.000001 -1.000000 -0.000001 255 255 255 255
-0.038734 0.000027 0.036175 0.000001 -1.000000 -0.000001 255 255 255 255
0.000000 0.000027 0.000000 0.000001 -1.000000 -0.000001 255 255 255 255
0.051891 0.000027 0.010783 0.000001 1.000000 0.000000 255 255 255 255
0.052876 0.000027 0.003617 0.000001 1.000000 0.000000 255 255 255 255
0.000000 0.000027 0.000000 0.000001 1.000000 0.000000 255 255 255 255
0.021115 0.000027 -0.048612 -0.000000 -1.000000 0.000001 147 255 220 255
0.027538 0.000027 -0.045284 -0.000000 -1.000000 0.000001 148 255 220 255
-0.038734 0.000027 0.036175 0.000001 -1.000000 -0.000000 255 255 255 255
-0.043299 0.000027 0.030564 0.000001 -1.000000 -0.000000 255 255 255 255
-0.033448 0.000027 0.041113 0.000001 -1.000000 -0.000001 147 255 220 255
-0.038734 0.000027 0.036175 0.000001 -1.000000 -0.000001 147 255 220 255
0.000000 0.000027 0.000000 0.000001 -1.000000 -0.000001 147 255 220 255
0.047058 0.000027 0.024383 -0.000001 -1.000000 -0.000000 255 255 255 255
-0.047058 0.000027 0.024383 0.000001 -1.000000 -0.000000 255 255 255 255
0.047058 0.000027 -0.024383 -0.000001 -1.000000 0.000000 147 255 220 255
0.049940 0.000027 -0.017749 -0.000001 -1.000000 0.000000 147 255 220 255
-0.051891 0.000027 0.010783 0.000001 -1.000000 -0.000000 147 255 220 255
-0.052876 0.000027 0.003617 0.000001 -1.000000 -0.000000 147 255 220 255
0.043299 0.000027 0.030564 -0.000001 -1.000000 -0.000000 255 255 255 255
0.051891 0.000027 0.010783 -0.000001 -1.000000 -0.000000 147 255 220 255
0.049940 0.000027 0.017749 -0.000001 -1.000000 -0.000000 147 255 220 255
-0.047058 0.000027 -0.024383 0.000001 -1.000000 0.000000 147 255 220 255
-0.043299 0.000027 -0.030564 0.000001 -1.000000 0.000000 147 255 220 255
0.038734 0.000027 0.036175 -0.000001 -1.000000 -0.000000 255 255 255 255
0.007217 0.000027 0.052506 -0.000000 -1.000000 -0.000001 171 255 226 255
0.000000 0.000027 0.053000 -0.000000 -1.000000 -0.000001 152 255 222 255
0.000000 0.000027 0.000000 -0.000000 -1.000000 -0.000001 171 255 226 255
0.047058 0.000027 -0.024383 -0.000001 -1.000000 0.000000 255 255 255 255
0.033448 0.000027 0.041113 -0.000000 -1.000000 -0.000001 147 255 220 255
0.027538 0.000027 0.045284 -0.000000 -1.000000 -0.000001 147 255 220 255
-0.021115 0.000027 -0.048612 0.000000 -1.000000 0.000001 147 255 220 255
-0.014299 0.000027 -0.051035 0.000000 -1.000000 0.000001 147 255 220 255
0.033448 0.000027 -0.041113 -0.000001 -1.000000 0.000001 255 255 255 255
0.038734 0.000027 -0.036175 -0.000001 -1.000000 0.000001 255 255 255 255
0.000000 0.000027 0.000000 -0.000001 -1.000000 0.000001 255 255 255 255
0.007217 0.000027 0.052506 -0.000000 -1.000000 -0.000001 255 255 255 255
0.038734 0.000027 -0.036175 -0.000001 -1.000000 0.000000 255 255 255 255
0.043299 0.000027 -0.030564 -0.000001 -1.000000 0.000000 255 255 255 255
0.014299 0.000027 -0.051035 -0.000000 -1.000000 0.000001 147 255 220 255
0.021115 0.000027 -0.048612 -0.000000 -1.000000 0.000001 147 255 220 255
0.000000 0.000027 0.053000 -0.000000 -1.000000 -0.000001 255 255 255 255
-0.027538 0.000027 0.045284 0.000000 -1.000000 -0.000001 147 255 220 255
-0.033448 0.000027 0.041113 0.000000 -1.000000 -0.000001 147 255 220 255
0.047058 0.000027 -0.024383 0.000001 1.000000 -0.000000 255 255 255 255
0.043299 0.000027 -0.030564 0.000001 1.000000 -0.000000 255 255 255 255
-0.007217 0.000027 0.052506 0.000000 -1.000000 -0.000001 255 255 255 255
0.043299 0.000027 -0.030564 -0.000001 -1.000000 0.000000 147 255 220 255
0.047058 0.000027 -0.024383 -0.000001 -1.000000 0.000000 147 255 220 255
-0.049940 0.000027 0.017749 0.000001 -1.000000 -0.000000 147 255 220 255
-0.051891 0.000027 0.010783 0.000001 -1.000000 -0.000000 147 255 220 255
0.038734 0.000027 0.036175 -0.000001 -1.000000 -0.000001 255 255 255 255
0.033448 0.000027 0.041113 -0.000001 -1.000000 -0.000001 255 255 255 255
0.000000 0.000027 0.000000 -0.000001 -1.000000 -0.000001 255 255 255 255
3 0 1 2
3 3 4 5
3 3 5 6
3 7 8 9
3 7 9 10
3 11 12 13
3 11 13 14
3 15 16 17
3 15 17 18
3 19 20 21
3 19 21 22
3 23 24 25
3 23 25 26
3 27 28 29
3 27 29 30
3 31 32 33
3 31 33 34
3 35 36 37
3 35 37 38
3 39 40 41
3 39 41 42
3 43 44 45
3 43 45 46
3 47 48 49
3 47 49 50
3 51 52 53
3 51 53 54
3 55 56 57
3 55 57 58
3 59 60 61
3 59 61 62
3 63 64 65
3 63 65 66
3 67 68 69
3 67 69 70
3 71 72 73
3 71 73 74
3 75 76 77
3 75 77 78
3 79 80 81
3 79 81 82
3 83 84 85
3 83 85 86
3 87 88 89
3 87 89 90
3 91 92 93
3 91 93 94
3 95 96 97
3 95 97 98
3 99 100 101
3 99 101 102
3 103 104 105
3 103 105 106
3 107 108 109
3 107 109 110
3 111 112 113
3 111 113 114
3 115 116 117
3 115 117 118
3 119 120 121
3 119 121 122
3 123 124 125
3 123 125 126
3 127 128 129
3 127 129 130
3 131 132 133
3 131 133 134
3 135 136 137
3 135 137 138
3 139 140 141
3 139 141 142
3 143 144 145
3 143 145 146
3 147 148 149
3 147 149 150
3 151 152 153
3 151 153 154
3 155 156 157
3 155 157 158
3 159 160 161
3 159 161 162
3 163 164 165
3 163 165 166
3 167 168 169
3 167 169 170
3 171 172 173
3 171 173 174
3 175 176 177
3 175 177 178
3 179 180 181
3 179 181 182
3 0 183 1
3 184 185 186
3 187 188 186
3 186 188 189
3 186 189 184
3 190 191 186
3 186 191 192
3 186 192 187
3 193 194 186
3 186 194 195
3 186 195 190
3 196 197 186
3 186 197 198
3 186 198 193
3 199 200 186
3 186 200 201
3 186 201 196
3 202 203 186
3 186 203 204
3 186 204 199
3 205 206 186
3 186 206 207
3 186 207 202
3 208 209 186
3 186 209 210
3 186 210 205
3 211 212 186
3 186 212 213
3 186 213 208
3 214 215 186
3 186 215 216
3 186 216 211
3 217 218 186
3 186 218 219
3 186 219 214
3 220 221 186
3 186 221 222
3 186 222 217
3 223 224 186
3 186 224 225
3 186 225 220
3 226 227 186
3 186 227 228
3 186 228 223
3 185 229 186
3 186 229 230
3 186 230 226
3 231 232 233
3 234 235 236
3 237 238 239
3 240 241 242
3 243 244 245
3 246 247 248
3 249 250 251
3 252 253 233
3 244 254 245
3 255 256 251
3 254 257 245
3 258 259 260
3 257 261 245
3 262 263 236
3 264 265 239
3 261 266 245
3 267 268 236
3 269 270 239
3 266 271 245
3 272 273 236
3 274 275 251
3 276 277 278
3 279 280 260
3 281 282 251
3 283 284 285
3 286 287 260
3 284 288 285
3 289 290 291
3 292 293 245
3 294 295 239
3 288 296 285
3 297 298 299
3 300 301 236
3 302 303 239
3 296 304 285
3 305 306 242
3 307 308 236
3 309 310 311
3 312 313 314
3 315 316 285
3 317 318 260
3 319 320 251
3 304 321 285
3 322 323 260
3 316 324 285
3 321 325 285
3 326 327 328
3 324 283 285
3 329 330 239
3 325 331 285
3 332 333 242
3 334 335 236
3 336 337 239
3 338 339 314
3 306 340 242
3 341 342 236
3 343 344 239
3 339 345 314
3 340 346 242
3 347 348 260
3 349 350 251
3 345 351 314
3 352 353 354
3 355 356 357
3 358 359 360
3 361 362 251
3 363 364 245
3 365 366 367
3 313 368 314
3 364 369 245
3 370 371 236
3 372 373 239
3 368 374 314
3 369 243 245
3 375 376 236
3 377 378 239
3 374 379 314
3 380 381 382
3 383 338 314
3 384 385 260
3 386 387 251
3 388 389 390
3 333 391 242
3 392 393 314
3 394 395 251
3 391 396 242
3 397 398 260
3 399 400 360
3 396 401 242
3 402 403 236
3 404 405 239
3 406 407 408
